<svg width="288" height="303" viewBox="0 0 288 303" fill="none" xmlns="http://www.w3.org/2000/svg">
<g opacity="0.5" filter="url(#filter0_f_1_2)">
<path d="M48 88C48 65.9086 65.9086 48 88 48H199.997C222.088 48 239.997 65.9086 239.997 88V199.997C239.997 222.088 222.089 239.997 199.997 239.997H88C65.9086 239.997 48 222.089 48 199.997V88Z" fill="url(#paint0_linear_1_2)"/>
</g>
<g filter="url(#filter1_d_1_2)">
<g clip-path="url(#clip0_1_2)">
<path d="M48 88C48 65.9086 65.9086 48 88 48H199.997C222.088 48 239.997 65.9086 239.997 88V199.997C239.997 222.088 222.089 239.997 199.997 239.997H88C65.9086 239.997 48 222.089 48 199.997V88Z" fill="url(#paint1_linear_1_2)"/>
<rect width="191.997" height="191.997" transform="translate(48 48)" fill="url(#paint2_linear_1_2)"/>
<path d="M103.999 90.0057C103.999 81.1692 111.162 74.0057 119.999 74.0057H167.991C176.828 74.0057 183.991 81.1692 183.991 90.0057V137.999C183.991 146.835 176.828 153.999 167.991 153.999H119.999C111.162 153.999 103.999 146.835 103.999 137.999V90.0057Z" fill="white" fill-opacity="0.1"/>
<g filter="url(#filter2_d_1_2)">
<path d="M143.995 134V124.001" stroke="white" stroke-width="4.99955" stroke-linecap="round" stroke-linejoin="round"/>
<path d="M149.994 106.003V94.0039" stroke="white" stroke-width="4.99955" stroke-linecap="round" stroke-linejoin="round"/>
<path d="M153.994 106.003C154.524 106.003 155.033 106.214 155.408 106.589C155.783 106.964 155.994 107.472 155.994 108.003V116.002C155.994 118.123 155.151 120.158 153.651 121.658C152.151 123.158 150.116 124.001 147.995 124.001H139.995C137.874 124.001 135.839 123.158 134.339 121.658C132.839 120.158 131.996 118.123 131.996 116.002V108.003C131.996 107.472 132.207 106.964 132.582 106.589C132.957 106.214 133.465 106.003 133.996 106.003H153.994Z" stroke="white" stroke-width="4.99955" stroke-linecap="round" stroke-linejoin="round"/>
<path d="M137.995 106.003V94.0039" stroke="white" stroke-width="4.99955" stroke-linecap="round" stroke-linejoin="round"/>
</g>
<g filter="url(#filter3_d_1_2)">
<path d="M122.687 185.295V172.41H126.58L128.918 181.199L131.23 172.41H135.132V185.295H132.715V175.152L130.157 185.295H127.653L125.104 175.152V185.295H122.687ZM146.86 180.557L149.383 181.357C148.996 182.763 148.351 183.809 147.449 184.495C146.553 185.174 145.413 185.514 144.03 185.514C142.319 185.514 140.913 184.931 139.811 183.765C138.71 182.593 138.159 180.994 138.159 178.966C138.159 176.822 138.713 175.158 139.82 173.974C140.928 172.785 142.384 172.19 144.188 172.19C145.765 172.19 147.045 172.656 148.029 173.588C148.615 174.138 149.055 174.929 149.348 175.961L146.772 176.576C146.62 175.908 146.301 175.38 145.814 174.994C145.334 174.607 144.748 174.414 144.056 174.414C143.101 174.414 142.325 174.756 141.727 175.442C141.136 176.128 140.84 177.238 140.84 178.773C140.84 180.402 141.133 181.562 141.719 182.254C142.305 182.945 143.066 183.291 144.004 183.291C144.695 183.291 145.29 183.071 145.788 182.631C146.286 182.192 146.643 181.501 146.86 180.557ZM152.524 185.295V172.41H156.699C158.281 172.41 159.312 172.474 159.792 172.603C160.531 172.797 161.149 173.218 161.647 173.869C162.145 174.513 162.394 175.348 162.394 176.374C162.394 177.165 162.25 177.83 161.963 178.369C161.676 178.908 161.31 179.333 160.865 179.643C160.425 179.948 159.977 180.15 159.52 180.25C158.899 180.373 157.999 180.434 156.822 180.434H155.125V185.295H152.524ZM155.125 174.589V178.246H156.549C157.575 178.246 158.26 178.178 158.606 178.044C158.952 177.909 159.221 177.698 159.415 177.411C159.614 177.124 159.713 176.79 159.713 176.409C159.713 175.94 159.576 175.553 159.3 175.249C159.025 174.944 158.676 174.754 158.254 174.677C157.944 174.619 157.32 174.589 156.382 174.589H155.125Z" fill="white"/>
</g>
<path d="M121.146 208.533V199.943H124.386C124.956 199.943 125.392 199.971 125.693 200.025C126.114 200.096 126.468 200.23 126.753 200.43C127.038 200.625 127.267 200.9 127.439 201.256C127.614 201.611 127.702 202.002 127.702 202.428C127.702 203.158 127.47 203.777 127.005 204.285C126.54 204.789 125.7 205.041 124.485 205.041H122.282V208.533H121.146ZM122.282 204.027H124.503C125.237 204.027 125.759 203.891 126.068 203.617C126.376 203.344 126.53 202.959 126.53 202.463C126.53 202.103 126.439 201.797 126.255 201.543C126.075 201.285 125.837 201.115 125.54 201.033C125.349 200.982 124.995 200.957 124.48 200.957H122.282V204.027ZM129.303 208.533V202.31H130.252V203.254C130.494 202.812 130.717 202.521 130.92 202.381C131.127 202.24 131.354 202.17 131.6 202.17C131.955 202.17 132.317 202.283 132.684 202.51L132.321 203.488C132.063 203.336 131.805 203.26 131.547 203.26C131.317 203.26 131.11 203.33 130.926 203.471C130.743 203.607 130.612 203.799 130.534 204.045C130.416 204.42 130.358 204.83 130.358 205.275V208.533H129.303ZM133.218 205.422C133.218 204.269 133.539 203.416 134.179 202.861C134.714 202.4 135.367 202.17 136.136 202.17C136.992 202.17 137.691 202.451 138.234 203.014C138.777 203.572 139.048 204.346 139.048 205.334C139.048 206.135 138.927 206.766 138.685 207.226C138.447 207.683 138.097 208.039 137.636 208.293C137.179 208.547 136.679 208.674 136.136 208.674C135.265 208.674 134.56 208.394 134.021 207.836C133.486 207.277 133.218 206.473 133.218 205.422ZM134.302 205.422C134.302 206.219 134.476 206.816 134.824 207.215C135.171 207.609 135.609 207.807 136.136 207.807C136.66 207.807 137.095 207.607 137.443 207.209C137.791 206.81 137.964 206.203 137.964 205.387C137.964 204.617 137.789 204.035 137.437 203.641C137.089 203.242 136.656 203.043 136.136 203.043C135.609 203.043 135.171 203.24 134.824 203.635C134.476 204.029 134.302 204.625 134.302 205.422ZM142.893 207.59L143.046 208.521C142.749 208.584 142.483 208.615 142.249 208.615C141.866 208.615 141.569 208.555 141.358 208.433C141.147 208.312 140.999 208.154 140.913 207.959C140.827 207.76 140.784 207.344 140.784 206.711V203.131H140.01V202.31H140.784V200.769L141.833 200.137V202.31H142.893V203.131H141.833V206.769C141.833 207.07 141.85 207.264 141.885 207.349C141.925 207.435 141.985 207.504 142.067 207.555C142.153 207.605 142.274 207.631 142.43 207.631C142.548 207.631 142.702 207.617 142.893 207.59ZM143.838 205.422C143.838 204.269 144.158 203.416 144.799 202.861C145.334 202.4 145.986 202.17 146.756 202.17C147.611 202.17 148.31 202.451 148.853 203.014C149.396 203.572 149.668 204.346 149.668 205.334C149.668 206.135 149.547 206.766 149.305 207.226C149.066 207.683 148.717 208.039 148.256 208.293C147.799 208.547 147.299 208.674 146.756 208.674C145.885 208.674 145.18 208.394 144.641 207.836C144.105 207.277 143.838 206.473 143.838 205.422ZM144.922 205.422C144.922 206.219 145.096 206.816 145.443 207.215C145.791 207.609 146.228 207.807 146.756 207.807C147.279 207.807 147.715 207.607 148.062 207.209C148.41 206.81 148.584 206.203 148.584 205.387C148.584 204.617 148.408 204.035 148.057 203.641C147.709 203.242 147.275 203.043 146.756 203.043C146.228 203.043 145.791 203.24 145.443 203.635C145.096 204.029 144.922 204.625 144.922 205.422ZM155.271 206.254L156.308 206.389C156.194 207.103 155.903 207.664 155.435 208.07C154.97 208.473 154.398 208.674 153.718 208.674C152.866 208.674 152.181 208.396 151.661 207.842C151.146 207.283 150.888 206.484 150.888 205.445C150.888 204.773 150.999 204.185 151.222 203.682C151.444 203.178 151.782 202.801 152.235 202.551C152.693 202.297 153.189 202.17 153.724 202.17C154.4 202.17 154.952 202.342 155.382 202.685C155.812 203.025 156.087 203.51 156.208 204.139L155.183 204.297C155.085 203.879 154.911 203.564 154.661 203.353C154.415 203.142 154.116 203.037 153.765 203.037C153.234 203.037 152.802 203.228 152.47 203.611C152.138 203.99 151.972 204.592 151.972 205.416C151.972 206.252 152.132 206.859 152.452 207.238C152.773 207.617 153.191 207.807 153.706 207.807C154.12 207.807 154.466 207.68 154.743 207.426C155.021 207.172 155.196 206.781 155.271 206.254ZM157.118 205.422C157.118 204.269 157.438 203.416 158.078 202.861C158.614 202.4 159.266 202.17 160.035 202.17C160.891 202.17 161.59 202.451 162.133 203.014C162.676 203.572 162.948 204.346 162.948 205.334C162.948 206.135 162.826 206.766 162.584 207.226C162.346 207.683 161.996 208.039 161.535 208.293C161.078 208.547 160.578 208.674 160.035 208.674C159.164 208.674 158.459 208.394 157.92 207.836C157.385 207.277 157.118 206.473 157.118 205.422ZM158.201 205.422C158.201 206.219 158.375 206.816 158.723 207.215C159.071 207.609 159.508 207.807 160.035 207.807C160.559 207.807 160.994 207.607 161.342 207.209C161.69 206.81 161.864 206.203 161.864 205.387C161.864 204.617 161.688 204.035 161.336 203.641C160.989 203.242 160.555 203.043 160.035 203.043C159.508 203.043 159.071 203.24 158.723 203.635C158.375 204.029 158.201 204.625 158.201 205.422ZM164.466 208.533V199.943H165.521V208.533H164.466Z" fill="white" fill-opacity="0.8"/>
</g>
</g>
<defs>
<filter id="filter0_f_1_2" x="0" y="0" width="287.997" height="287.997" filterUnits="userSpaceOnUse" color-interpolation-filters="sRGB">
<feFlood flood-opacity="0" result="BackgroundImageFix"/>
<feBlend mode="normal" in="SourceGraphic" in2="BackgroundImageFix" result="shape"/>
<feGaussianBlur stdDeviation="24" result="effect1_foregroundBlur_1_2"/>
</filter>
<filter id="filter1_d_1_2" x="10" y="35" width="267.997" height="267.997" filterUnits="userSpaceOnUse" color-interpolation-filters="sRGB">
<feFlood flood-opacity="0" result="BackgroundImageFix"/>
<feColorMatrix in="SourceAlpha" type="matrix" values="0 0 0 0 0 0 0 0 0 0 0 0 0 0 0 0 0 0 127 0" result="hardAlpha"/>
<feMorphology radius="12" operator="erode" in="SourceAlpha" result="effect1_dropShadow_1_2"/>
<feOffset dy="25"/>
<feGaussianBlur stdDeviation="25"/>
<feComposite in2="hardAlpha" operator="out"/>
<feColorMatrix type="matrix" values="0 0 0 0 0 0 0 0 0 0 0 0 0 0 0 0 0 0 0.25 0"/>
<feBlend mode="normal" in2="BackgroundImageFix" result="effect1_dropShadow_1_2"/>
<feBlend mode="normal" in="SourceGraphic" in2="effect1_dropShadow_1_2" result="shape"/>
</filter>
<filter id="filter2_d_1_2" x="111.997" y="86.0043" width="63.9957" height="63.9957" filterUnits="userSpaceOnUse" color-interpolation-filters="sRGB">
<feFlood flood-opacity="0" result="BackgroundImageFix"/>
<feColorMatrix in="SourceAlpha" type="matrix" values="0 0 0 0 0 0 0 0 0 0 0 0 0 0 0 0 0 0 127 0" result="hardAlpha"/>
<feOffset dy="4"/>
<feGaussianBlur stdDeviation="4"/>
<feColorMatrix type="matrix" values="0 0 0 0 0 0 0 0 0 0 0 0 0 0 0 0 0 0 0.15 0"/>
<feBlend mode="normal" in2="BackgroundImageFix" result="effect1_dropShadow_1_2"/>
<feBlend mode="normal" in="SourceGraphic" in2="effect1_dropShadow_1_2" result="shape"/>
</filter>
<filter id="filter3_d_1_2" x="115.412" y="162.996" width="57.1652" height="40.0029" filterUnits="userSpaceOnUse" color-interpolation-filters="sRGB">
<feFlood flood-opacity="0" result="BackgroundImageFix"/>
<feColorMatrix in="SourceAlpha" type="matrix" values="0 0 0 0 0 0 0 0 0 0 0 0 0 0 0 0 0 0 127 0" result="hardAlpha"/>
<feOffset dy="3"/>
<feGaussianBlur stdDeviation="3"/>
<feColorMatrix type="matrix" values="0 0 0 0 0 0 0 0 0 0 0 0 0 0 0 0 0 0 0.12 0"/>
<feBlend mode="normal" in2="BackgroundImageFix" result="effect1_dropShadow_1_2"/>
<feBlend mode="normal" in="SourceGraphic" in2="effect1_dropShadow_1_2" result="shape"/>
</filter>
<linearGradient id="paint0_linear_1_2" x1="48" y1="48" x2="239.997" y2="239.997" gradientUnits="userSpaceOnUse">
<stop stop-color="#51A2FF"/>
<stop offset="1" stop-color="#4F39F6"/>
</linearGradient>
<linearGradient id="paint1_linear_1_2" x1="48" y1="48" x2="239.997" y2="239.997" gradientUnits="userSpaceOnUse">
<stop stop-color="#51A2FF"/>
<stop offset="0.5" stop-color="#2B7FFF"/>
<stop offset="1" stop-color="#4F39F6"/>
</linearGradient>
<linearGradient id="paint2_linear_1_2" x1="0" y1="0" x2="191.997" y2="191.997" gradientUnits="userSpaceOnUse">
<stop stop-color="white" stop-opacity="0.2"/>
<stop offset="0.5" stop-opacity="0"/>
<stop offset="1" stop-opacity="0"/>
</linearGradient>
<clipPath id="clip0_1_2">
<path d="M48 88C48 65.9086 65.9086 48 88 48H199.997C222.088 48 239.997 65.9086 239.997 88V199.997C239.997 222.088 222.089 239.997 199.997 239.997H88C65.9086 239.997 48 222.089 48 199.997V88Z" fill="white"/>
</clipPath>
</defs>
</svg>
