<svg width="288" height="303" viewBox="0 0 288 303" fill="none" xmlns="http://www.w3.org/2000/svg">
<g opacity="0.5" filter="url(#filter0_f_1_3)">
<path d="M48 88C48 65.9086 65.9086 48 88 48H199.997C222.088 48 239.997 65.9086 239.997 88V199.997C239.997 222.088 222.089 239.997 199.997 239.997H88C65.9086 239.997 48 222.089 48 199.997V88Z" fill="url(#paint0_linear_1_3)"/>
</g>
<g filter="url(#filter1_d_1_3)">
<g clip-path="url(#clip0_1_3)">
<path d="M48 88C48 65.9086 65.9086 48 88 48H199.997C222.088 48 239.997 65.9086 239.997 88V199.997C239.997 222.088 222.089 239.997 199.997 239.997H88C65.9086 239.997 48 222.089 48 199.997V88Z" fill="url(#paint1_linear_1_3)"/>
<rect width="191.997" height="191.997" transform="translate(48 48)" fill="url(#paint2_linear_1_3)"/>
<path d="M103.999 90.0057C103.999 81.1692 111.162 74.0057 119.999 74.0057H167.991C176.828 74.0057 183.991 81.1692 183.991 90.0057V137.999C183.991 146.835 176.828 153.999 167.991 153.999H119.999C111.162 153.999 103.999 146.835 103.999 137.999V90.0057Z" fill="white" fill-opacity="0.1"/>
<g filter="url(#filter2_d_1_3)">
<path d="M150.948 115.782L153.978 132.832C154.012 133.033 153.984 133.24 153.897 133.424C153.811 133.608 153.67 133.762 153.494 133.864C153.318 133.966 153.115 134.012 152.912 133.996C152.709 133.979 152.516 133.901 152.358 133.772L145.199 128.399C144.853 128.141 144.433 128.001 144.002 128.001C143.571 128.001 143.151 128.141 142.805 128.399L135.634 133.77C135.476 133.899 135.283 133.977 135.081 133.993C134.878 134.01 134.675 133.964 134.499 133.862C134.323 133.76 134.182 133.607 134.096 133.423C134.009 133.239 133.98 133.033 134.014 132.832L137.042 115.782" stroke="white" stroke-width="4.99955" stroke-linecap="round" stroke-linejoin="round"/>
<path d="M143.995 118.002C150.622 118.002 155.994 112.63 155.994 106.003C155.994 99.376 150.622 94.0039 143.995 94.0039C137.368 94.0039 131.996 99.376 131.996 106.003C131.996 112.63 137.368 118.002 143.995 118.002Z" stroke="white" stroke-width="4.99955" stroke-linecap="round" stroke-linejoin="round"/>
</g>
<g filter="url(#filter3_d_1_3)">
<path d="M117.882 181.102L120.413 180.856C120.565 181.706 120.873 182.33 121.336 182.728C121.805 183.127 122.434 183.326 123.225 183.326C124.063 183.326 124.693 183.15 125.115 182.798C125.543 182.441 125.757 182.025 125.757 181.55C125.757 181.246 125.666 180.988 125.484 180.777C125.308 180.56 124.998 180.373 124.553 180.214C124.248 180.109 123.554 179.922 122.47 179.652C121.075 179.306 120.097 178.881 119.534 178.378C118.743 177.669 118.348 176.804 118.348 175.785C118.348 175.129 118.532 174.516 118.901 173.948C119.276 173.374 119.812 172.937 120.51 172.638C121.213 172.339 122.059 172.19 123.05 172.19C124.667 172.19 125.883 172.545 126.697 173.254C127.517 173.963 127.948 174.909 127.989 176.092L125.388 176.207C125.276 175.545 125.036 175.07 124.667 174.783C124.304 174.49 123.756 174.343 123.023 174.343C122.267 174.343 121.676 174.499 121.248 174.809C120.973 175.008 120.835 175.275 120.835 175.609C120.835 175.914 120.964 176.174 121.222 176.391C121.55 176.667 122.347 176.954 123.612 177.253C124.878 177.551 125.812 177.862 126.416 178.184C127.025 178.501 127.5 178.937 127.84 179.494C128.185 180.045 128.358 180.727 128.358 181.542C128.358 182.28 128.153 182.971 127.743 183.616C127.333 184.26 126.753 184.741 126.003 185.057C125.253 185.368 124.318 185.523 123.199 185.523C121.57 185.523 120.319 185.148 119.446 184.398C118.573 183.642 118.052 182.544 117.882 181.102ZM131.482 185.295V172.41H134.083V178.131L139.339 172.41H142.837L137.986 177.428L143.101 185.295H139.735L136.193 179.248L134.083 181.401V185.295H131.482ZM145.275 185.295V172.41H147.877V185.295H145.275ZM151.335 185.295V172.515H153.936V183.124H160.405V185.295H151.335ZM163.239 185.295V172.515H165.84V183.124H172.309V185.295H163.239Z" fill="white"/>
</g>
<path d="M123.007 205.521L124.144 205.808C123.906 206.742 123.476 207.455 122.855 207.947C122.238 208.435 121.482 208.68 120.587 208.68C119.662 208.68 118.908 208.492 118.326 208.117C117.747 207.738 117.306 207.191 117.001 206.476C116.701 205.762 116.55 204.994 116.55 204.174C116.55 203.279 116.72 202.5 117.06 201.836C117.404 201.168 117.89 200.662 118.519 200.318C119.152 199.971 119.847 199.797 120.605 199.797C121.464 199.797 122.187 200.016 122.773 200.453C123.359 200.891 123.767 201.506 123.997 202.299L122.878 202.562C122.679 201.937 122.39 201.482 122.011 201.197C121.632 200.912 121.156 200.769 120.581 200.769C119.921 200.769 119.369 200.928 118.923 201.244C118.482 201.56 118.171 201.986 117.992 202.521C117.812 203.053 117.722 203.601 117.722 204.168C117.722 204.898 117.828 205.537 118.039 206.084C118.253 206.627 118.585 207.033 119.035 207.303C119.484 207.572 119.97 207.707 120.494 207.707C121.13 207.707 121.669 207.523 122.111 207.156C122.552 206.789 122.851 206.244 123.007 205.521ZM129.776 207.766C129.385 208.098 129.008 208.332 128.645 208.469C128.286 208.605 127.899 208.674 127.485 208.674C126.801 208.674 126.276 208.508 125.909 208.176C125.542 207.84 125.358 207.412 125.358 206.892C125.358 206.588 125.426 206.31 125.563 206.06C125.704 205.807 125.885 205.603 126.108 205.451C126.335 205.299 126.589 205.183 126.87 205.105C127.077 205.051 127.389 204.998 127.807 204.947C128.659 204.846 129.286 204.724 129.688 204.584C129.692 204.439 129.694 204.348 129.694 204.308C129.694 203.879 129.594 203.576 129.395 203.4C129.126 203.162 128.725 203.043 128.194 203.043C127.698 203.043 127.331 203.131 127.092 203.307C126.858 203.478 126.684 203.785 126.571 204.226L125.54 204.086C125.633 203.644 125.788 203.289 126.003 203.019C126.217 202.746 126.528 202.537 126.934 202.392C127.34 202.244 127.811 202.17 128.346 202.17C128.878 202.17 129.309 202.232 129.641 202.357C129.973 202.482 130.217 202.641 130.374 202.832C130.53 203.019 130.639 203.258 130.702 203.547C130.737 203.726 130.755 204.051 130.755 204.519V205.926C130.755 206.906 130.776 207.527 130.819 207.789C130.866 208.047 130.956 208.295 131.089 208.533H129.987C129.878 208.314 129.807 208.058 129.776 207.766ZM129.688 205.41C129.305 205.566 128.731 205.699 127.965 205.808C127.532 205.871 127.225 205.941 127.046 206.019C126.866 206.098 126.727 206.213 126.63 206.365C126.532 206.514 126.483 206.68 126.483 206.863C126.483 207.144 126.589 207.379 126.799 207.566C127.014 207.754 127.327 207.848 127.737 207.848C128.143 207.848 128.505 207.76 128.821 207.584C129.137 207.404 129.37 207.16 129.518 206.851C129.631 206.613 129.688 206.262 129.688 205.797V205.41ZM132.695 210.918V202.31H133.656V203.119C133.883 202.803 134.139 202.566 134.424 202.41C134.709 202.25 135.055 202.17 135.461 202.17C135.992 202.17 136.461 202.307 136.867 202.58C137.273 202.853 137.58 203.24 137.787 203.74C137.994 204.236 138.097 204.781 138.097 205.375C138.097 206.012 137.982 206.586 137.752 207.098C137.525 207.605 137.193 207.996 136.756 208.269C136.322 208.539 135.865 208.674 135.385 208.674C135.033 208.674 134.717 208.599 134.435 208.451C134.158 208.303 133.93 208.115 133.75 207.889V210.918H132.695ZM133.65 205.457C133.65 206.258 133.812 206.849 134.137 207.232C134.461 207.615 134.853 207.807 135.314 207.807C135.783 207.807 136.183 207.609 136.515 207.215C136.851 206.816 137.019 206.201 137.019 205.369C137.019 204.576 136.855 203.982 136.527 203.588C136.203 203.193 135.814 202.996 135.361 202.996C134.912 202.996 134.514 203.207 134.166 203.629C133.822 204.047 133.65 204.656 133.65 205.457ZM143.735 207.766C143.345 208.098 142.968 208.332 142.605 208.469C142.245 208.605 141.858 208.674 141.444 208.674C140.761 208.674 140.235 208.508 139.868 208.176C139.501 207.84 139.317 207.412 139.317 206.892C139.317 206.588 139.386 206.31 139.522 206.06C139.663 205.807 139.845 205.603 140.067 205.451C140.294 205.299 140.548 205.183 140.829 205.105C141.036 205.051 141.349 204.998 141.767 204.947C142.618 204.846 143.245 204.724 143.647 204.584C143.651 204.439 143.653 204.348 143.653 204.308C143.653 203.879 143.554 203.576 143.355 203.4C143.085 203.162 142.685 203.043 142.153 203.043C141.657 203.043 141.29 203.131 141.052 203.307C140.817 203.478 140.644 203.785 140.53 204.226L139.499 204.086C139.593 203.644 139.747 203.289 139.962 203.019C140.177 202.746 140.487 202.537 140.894 202.392C141.3 202.244 141.771 202.17 142.306 202.17C142.837 202.17 143.269 202.232 143.601 202.357C143.933 202.482 144.177 202.641 144.333 202.832C144.489 203.019 144.599 203.258 144.661 203.547C144.696 203.726 144.714 204.051 144.714 204.519V205.926C144.714 206.906 144.735 207.527 144.778 207.789C144.825 208.047 144.915 208.295 145.048 208.533H143.946C143.837 208.314 143.767 208.058 143.735 207.766ZM143.647 205.41C143.265 205.566 142.69 205.699 141.925 205.808C141.491 205.871 141.185 205.941 141.005 206.019C140.825 206.098 140.687 206.213 140.589 206.365C140.491 206.514 140.442 206.68 140.442 206.863C140.442 207.144 140.548 207.379 140.759 207.566C140.974 207.754 141.286 207.848 141.696 207.848C142.103 207.848 142.464 207.76 142.78 207.584C143.097 207.404 143.329 207.16 143.478 206.851C143.591 206.613 143.647 206.262 143.647 205.797V205.41ZM147.627 208.533H146.649V199.943H147.703V203.008C148.149 202.449 148.717 202.17 149.408 202.17C149.791 202.17 150.153 202.248 150.492 202.404C150.836 202.557 151.117 202.773 151.336 203.055C151.559 203.332 151.733 203.668 151.858 204.062C151.983 204.457 152.045 204.879 152.045 205.328C152.045 206.394 151.781 207.219 151.254 207.801C150.727 208.383 150.094 208.674 149.356 208.674C148.621 208.674 148.045 208.367 147.627 207.754V208.533ZM147.615 205.375C147.615 206.121 147.717 206.66 147.92 206.992C148.252 207.535 148.701 207.807 149.268 207.807C149.729 207.807 150.127 207.607 150.463 207.209C150.799 206.807 150.967 206.209 150.967 205.416C150.967 204.603 150.805 204.004 150.481 203.617C150.16 203.23 149.772 203.037 149.315 203.037C148.854 203.037 148.455 203.238 148.119 203.641C147.783 204.039 147.615 204.617 147.615 205.375ZM153.64 201.156V199.943H154.695V201.156H153.64ZM153.64 208.533V202.31H154.695V208.533H153.64ZM156.583 208.533V199.943H157.637V208.533H156.583ZM159.584 201.156V199.943H160.639V201.156H159.584ZM159.584 208.533V202.31H160.639V208.533H159.584ZM164.853 207.59L165.005 208.521C164.708 208.584 164.442 208.615 164.208 208.615C163.825 208.615 163.528 208.555 163.317 208.433C163.106 208.312 162.958 208.154 162.872 207.959C162.786 207.76 162.743 207.344 162.743 206.711V203.131H161.97V202.31H162.743V200.769L163.792 200.137V202.31H164.853V203.131H163.792V206.769C163.792 207.07 163.81 207.264 163.845 207.349C163.884 207.435 163.944 207.504 164.026 207.555C164.112 207.605 164.233 207.631 164.39 207.631C164.507 207.631 164.661 207.617 164.853 207.59ZM166.143 210.93L166.026 209.939C166.256 210.002 166.457 210.033 166.629 210.033C166.864 210.033 167.051 209.994 167.192 209.916C167.332 209.838 167.447 209.728 167.537 209.588C167.604 209.482 167.711 209.221 167.86 208.803C167.879 208.744 167.91 208.658 167.953 208.545L165.592 202.31H166.729L168.024 205.914C168.192 206.371 168.342 206.851 168.475 207.355C168.596 206.871 168.74 206.398 168.908 205.937L170.239 202.31H171.293L168.926 208.639C168.672 209.322 168.475 209.793 168.334 210.051C168.147 210.398 167.932 210.652 167.69 210.812C167.447 210.976 167.158 211.058 166.822 211.058C166.619 211.058 166.393 211.016 166.143 210.93Z" fill="white" fill-opacity="0.8"/>
</g>
</g>
<defs>
<filter id="filter0_f_1_3" x="0" y="0" width="287.997" height="287.997" filterUnits="userSpaceOnUse" color-interpolation-filters="sRGB">
<feFlood flood-opacity="0" result="BackgroundImageFix"/>
<feBlend mode="normal" in="SourceGraphic" in2="BackgroundImageFix" result="shape"/>
<feGaussianBlur stdDeviation="24" result="effect1_foregroundBlur_1_3"/>
</filter>
<filter id="filter1_d_1_3" x="10" y="35" width="267.997" height="267.997" filterUnits="userSpaceOnUse" color-interpolation-filters="sRGB">
<feFlood flood-opacity="0" result="BackgroundImageFix"/>
<feColorMatrix in="SourceAlpha" type="matrix" values="0 0 0 0 0 0 0 0 0 0 0 0 0 0 0 0 0 0 127 0" result="hardAlpha"/>
<feMorphology radius="12" operator="erode" in="SourceAlpha" result="effect1_dropShadow_1_3"/>
<feOffset dy="25"/>
<feGaussianBlur stdDeviation="25"/>
<feComposite in2="hardAlpha" operator="out"/>
<feColorMatrix type="matrix" values="0 0 0 0 0 0 0 0 0 0 0 0 0 0 0 0 0 0 0.25 0"/>
<feBlend mode="normal" in2="BackgroundImageFix" result="effect1_dropShadow_1_3"/>
<feBlend mode="normal" in="SourceGraphic" in2="effect1_dropShadow_1_3" result="shape"/>
</filter>
<filter id="filter2_d_1_3" x="111.997" y="86.0043" width="63.9957" height="63.9957" filterUnits="userSpaceOnUse" color-interpolation-filters="sRGB">
<feFlood flood-opacity="0" result="BackgroundImageFix"/>
<feColorMatrix in="SourceAlpha" type="matrix" values="0 0 0 0 0 0 0 0 0 0 0 0 0 0 0 0 0 0 127 0" result="hardAlpha"/>
<feOffset dy="4"/>
<feGaussianBlur stdDeviation="4"/>
<feColorMatrix type="matrix" values="0 0 0 0 0 0 0 0 0 0 0 0 0 0 0 0 0 0 0.15 0"/>
<feBlend mode="normal" in2="BackgroundImageFix" result="effect1_dropShadow_1_3"/>
<feBlend mode="normal" in="SourceGraphic" in2="effect1_dropShadow_1_3" result="shape"/>
</filter>
<filter id="filter3_d_1_3" x="111.231" y="162.996" width="67.0775" height="40.0029" filterUnits="userSpaceOnUse" color-interpolation-filters="sRGB">
<feFlood flood-opacity="0" result="BackgroundImageFix"/>
<feColorMatrix in="SourceAlpha" type="matrix" values="0 0 0 0 0 0 0 0 0 0 0 0 0 0 0 0 0 0 127 0" result="hardAlpha"/>
<feOffset dy="3"/>
<feGaussianBlur stdDeviation="3"/>
<feColorMatrix type="matrix" values="0 0 0 0 0 0 0 0 0 0 0 0 0 0 0 0 0 0 0.12 0"/>
<feBlend mode="normal" in2="BackgroundImageFix" result="effect1_dropShadow_1_3"/>
<feBlend mode="normal" in="SourceGraphic" in2="effect1_dropShadow_1_3" result="shape"/>
</filter>
<linearGradient id="paint0_linear_1_3" x1="48" y1="48" x2="239.997" y2="239.997" gradientUnits="userSpaceOnUse">
<stop stop-color="#00D492"/>
<stop offset="1" stop-color="#0092B8"/>
</linearGradient>
<linearGradient id="paint1_linear_1_3" x1="48" y1="48" x2="239.997" y2="239.997" gradientUnits="userSpaceOnUse">
<stop stop-color="#00D492"/>
<stop offset="0.5" stop-color="#00BBA7"/>
<stop offset="1" stop-color="#0092B8"/>
</linearGradient>
<linearGradient id="paint2_linear_1_3" x1="0" y1="0" x2="191.997" y2="191.997" gradientUnits="userSpaceOnUse">
<stop stop-color="white" stop-opacity="0.2"/>
<stop offset="0.5" stop-opacity="0"/>
<stop offset="1" stop-opacity="0"/>
</linearGradient>
<clipPath id="clip0_1_3">
<path d="M48 88C48 65.9086 65.9086 48 88 48H199.997C222.088 48 239.997 65.9086 239.997 88V199.997C239.997 222.088 222.089 239.997 199.997 239.997H88C65.9086 239.997 48 222.089 48 199.997V88Z" fill="white"/>
</clipPath>
</defs>
</svg>
