<svg width="24" height="24" viewBox="0 0 24 24" fill="none" xmlns="http://www.w3.org/2000/svg">
<rect opacity="0.01" width="24" height="24" fill="white"/>
<path d="M15.0667 1.33325L20.3997 6.66626V20.0002C20.3996 21.4727 19.2062 22.666 17.7337 22.6663H6.00034C4.52768 22.6663 3.33352 21.4729 3.33334 20.0002V4.00024C3.33334 2.52748 4.52758 1.33325 6.00034 1.33325H15.0667Z" fill="#FF4D4F"/>
<path fill-rule="evenodd" clip-rule="evenodd" d="M15.0667 1.33325L20.4 6.66659H16.4C15.6636 6.66659 15.0667 6.06963 15.0667 5.33325V1.33325Z" fill="#F8BBBF"/>
<path fill-rule="evenodd" clip-rule="evenodd" d="M15.8399 13.3638C15.3524 13.3481 14.8339 13.3854 14.2448 13.4591C13.4641 12.9776 12.9386 12.3159 12.5653 11.3442L12.5995 11.2034C12.6147 11.1405 12.6273 11.088 12.6394 11.0369C12.7773 10.4544 12.8519 10.0294 12.8739 9.60089C12.8906 9.27723 12.8726 8.97863 12.8152 8.70207C12.7093 8.10501 12.2866 7.75581 11.7543 7.73418C11.2581 7.71404 10.8018 7.99098 10.6851 8.42086C10.4951 9.11521 10.6064 10.0295 11.0089 11.5881C10.496 12.8108 9.8185 14.2438 9.36386 15.0431C8.75711 15.3561 8.28422 15.6409 7.88747 15.9564C7.36368 16.373 7.03671 16.8011 6.94656 17.2514C6.90303 17.4596 6.96879 17.7322 7.11877 17.9554C7.28892 18.2085 7.54549 18.3728 7.85306 18.3967C8.62902 18.457 9.58252 17.6569 10.635 15.8503C10.7409 15.8152 10.8529 15.7777 10.9893 15.7317L11.3719 15.6023C11.6136 15.5207 11.789 15.4623 11.9623 15.4059C12.714 15.1613 13.2827 15.0065 13.8004 14.9187C14.6991 15.3998 15.7382 15.7153 16.438 15.7153C17.0157 15.7153 17.4059 15.4159 17.547 14.9448C17.6709 14.5308 17.5725 14.0508 17.3069 13.7854C17.0318 13.5152 16.5261 13.386 15.8399 13.3638ZM7.87262 17.4897V17.4781L7.87667 17.4673C7.91764 17.3574 7.9781 17.2421 8.05659 17.1217C8.19423 16.9104 8.38343 16.6879 8.61794 16.4513C8.74388 16.3242 8.87503 16.2007 9.02886 16.0619L9.10433 15.9943C9.18318 15.9239 9.29583 15.8232 9.32408 15.7969L9.68315 15.4625L9.42227 15.878C9.02625 16.509 8.66854 16.9633 8.36162 17.2597C8.24894 17.3685 8.14957 17.4492 8.06954 17.5008C8.03654 17.5221 8.00798 17.5376 7.98559 17.5465C7.97245 17.5518 7.96082 17.5552 7.94928 17.5563C7.93708 17.5577 7.92471 17.5559 7.91339 17.5511C7.88866 17.5407 7.87258 17.5165 7.87262 17.4897ZM12.1225 10.6059L12.2774 10.4772C12.5286 10.2682 12.6825 9.79073 12.6677 9.33195C12.6509 8.81003 12.4391 8.46278 11.9773 8.46278C11.6486 8.46278 11.566 8.75599 11.615 9.24424C11.6581 9.67334 11.8139 10.1492 12.0273 10.465L12.1225 10.6059ZM11.732 12.3555L11.7813 12.2254L11.8484 12.3473C12.2239 13.0299 12.7113 13.5992 13.2472 13.9959L13.3627 14.0815L13.2219 14.1105C12.6974 14.2189 12.2085 14.3822 11.5404 14.6516C11.6102 14.6235 10.8456 14.9364 10.6524 15.0105L10.4837 15.0751L10.5737 14.9184C10.9705 14.2278 11.337 13.3979 11.732 12.3555H11.732ZM15.043 14.5301C16.0002 15.2777 16.5436 15.4408 16.7962 15.2583C16.8287 15.2349 16.8514 15.2083 16.8658 15.1832C16.9324 15.095 16.9517 14.9496 16.9096 14.8122C16.8706 14.685 16.7828 14.5739 16.6514 14.4858C16.3425 14.2789 15.812 14.2034 15.0635 14.3047L14.8001 14.3404L15.043 14.5301Z" fill="white"/>
</svg>
