<svg width="24" height="24" viewBox="0 0 24 24" fill="none" xmlns="http://www.w3.org/2000/svg">
<rect x="1" y="1" width="22" height="22" rx="8" fill="#2A2F3C" fill-opacity="0.5"/>
<path d="M11.4944 5.7459L11.5069 5.73935C11.5196 5.73272 11.5324 5.72644 11.5453 5.72047L11.569 5.70988L11.6032 5.69592L11.6363 5.68382L11.6767 5.67095L11.7113 5.66134L11.7379 5.65495L11.7749 5.64734L11.8039 5.64244L11.8432 5.63725L11.8889 5.63325L11.9301 5.63146L11.9517 5.63123L11.9686 5.63137L12.0064 5.63275L12.0329 5.6346L12.0744 5.639L12.099 5.64239L12.1388 5.64935L12.1812 5.65875L12.2168 5.66807L12.2333 5.67298C12.2555 5.67967 12.2774 5.6872 12.2989 5.69548L12.321 5.7043L12.3481 5.71601C12.3643 5.72327 12.3804 5.73105 12.3963 5.73929L12.4248 5.75466L12.4579 5.77415L12.4701 5.78189C12.5082 5.806 12.5449 5.83313 12.5799 5.86316L12.5951 5.87651L12.6203 5.89974L12.6352 5.91439L16.3952 9.67435C16.7728 10.0519 16.7728 10.6641 16.3952 11.0416C16.0176 11.4192 15.4055 11.4192 15.0279 11.0416L12.9183 8.93206L12.9184 17.402C12.9184 17.9359 12.4856 18.3688 11.9516 18.3688C11.4177 18.3688 10.9848 17.9359 10.9848 17.402L10.9847 8.93206L8.87528 11.0416C8.50412 11.4128 7.90626 11.4191 7.52742 11.0605L7.50802 11.0416C7.13046 10.6641 7.13046 10.0519 7.50802 9.67435L11.268 5.91439C11.2762 5.90613 11.2846 5.89804 11.2931 5.89013L11.3233 5.86322C11.3438 5.8456 11.3649 5.82903 11.3864 5.81346L11.4085 5.798L11.4331 5.7818C11.4532 5.76902 11.4736 5.75705 11.4944 5.7459Z" fill="white"/>
</svg>
