<svg width="24" height="24" viewBox="0 0 24 24" fill="none" xmlns="http://www.w3.org/2000/svg">
<rect opacity="0.01" width="24" height="24" fill="white"/>
<path d="M15.0667 1.33325L20.3997 6.66626V20.0002C20.3996 21.4727 19.2062 22.666 17.7337 22.6663H6.00034C4.52768 22.6663 3.33352 21.4729 3.33334 20.0002V4.00024C3.33334 2.52748 4.52758 1.33325 6.00034 1.33325H15.0667Z" fill="#1677FF"/>
<path fill-rule="evenodd" clip-rule="evenodd" d="M15.0667 1.33325L20.4 6.66659H16.4C15.6636 6.66659 15.0667 6.06963 15.0667 5.33325V1.33325Z" fill="#BCD4F6"/>
<path fill-rule="evenodd" clip-rule="evenodd" d="M8.94008 15.7334H10.7641L11.8105 11.5094H11.8681L12.8953 15.7334H14.7193L16.2457 9.07104H14.7385L13.7593 13.9958H13.7017L12.7417 9.71424H11.0521L10.0345 13.9958H9.97688L9.01688 9.07104H7.49048L8.94008 15.7334Z" fill="white"/>
</svg>
