<svg width="16" height="16" viewBox="0 0 16 16" fill="none" xmlns="http://www.w3.org/2000/svg">
<g clip-path="url(#clip0_26_333)">
<path d="M9.33335 1.51306V4.26676C9.33335 4.64012 9.33335 4.82681 9.40602 4.96941C9.46993 5.09486 9.57192 5.19684 9.69736 5.26076C9.83997 5.33342 10.0267 5.33342 10.4 5.33342H13.1537M13.3334 7.66671C13.3334 7.17753 13.3334 5.92509 13.2781 5.69491C13.2291 5.49084 13.1483 5.29575 13.0386 5.1168C12.9149 4.91497 12.742 4.74202 12.3961 4.39612L10.2706 2.27063C9.92471 1.92473 9.75176 1.75178 9.54992 1.62809C9.37098 1.51844 9.17589 1.43763 8.97182 1.38863C8.74164 1.33337 8.49705 1.33337 8.00787 1.33337H5.86669C4.74658 1.33337 4.18653 1.33337 3.75871 1.55136C3.38238 1.74311 3.07642 2.04907 2.88467 2.42539C2.66669 2.85322 2.66669 3.41327 2.66669 4.53337V11.4667C2.66669 12.5868 2.66669 13.1469 2.88467 13.5747C3.07642 13.951 3.38238 14.257 3.75871 14.4487C4.18653 14.6667 4.74658 14.6667 5.86669 14.6667H8.66669M7.33335 10.6667H4.66669M9.33335 7.66671H4.66669" stroke="#00D5BE" stroke-width="1.06667" stroke-linecap="round" stroke-linejoin="round"/>
<path d="M14.6667 14.6666L13.6667 13.6666M14.3334 12C14.3334 13.2886 13.2887 14.3333 12 14.3333C10.7114 14.3333 9.66669 13.2886 9.66669 12C9.66669 10.7113 10.7114 9.66663 12 9.66663C13.2887 9.66663 14.3334 10.7113 14.3334 12Z" stroke="#00D5BE" stroke-width="1.06667" stroke-linecap="round" stroke-linejoin="round"/>
</g>
<defs>
<clipPath id="clip0_26_333">
<rect width="16" height="16" fill="white"/>
</clipPath>
</defs>
</svg>
