<svg width="16" height="16" viewBox="0 0 16 16" fill="none" xmlns="http://www.w3.org/2000/svg">
<g clip-path="url(#clip0_9_4354)">
<path d="M8.00004 14.6666C9.84097 14.6666 11.5076 13.9204 12.7141 12.714C13.9205 11.5075 14.6667 9.84085 14.6667 7.99992C14.6667 6.15899 13.9205 4.49232 12.7141 3.28587C11.5076 2.07945 9.84097 1.33325 8.00004 1.33325C6.15911 1.33325 4.49244 2.07945 3.28599 3.28587C2.07957 4.49232 1.33337 6.15899 1.33337 7.99992C1.33337 9.84085 2.07957 11.5075 3.28599 12.714C4.49244 13.9204 6.15911 14.6666 8.00004 14.6666Z" stroke="#BCC1CD" stroke-linejoin="round"/>
<path d="M8 9.54159V8.20825C9.10457 8.20825 10 7.31282 10 6.20825C10 5.10369 9.10457 4.20825 8 4.20825C6.89543 4.20825 6 5.10369 6 6.20825" stroke="#BCC1CD" stroke-linecap="round" stroke-linejoin="round"/>
<path fill-rule="evenodd" clip-rule="evenodd" d="M8 12C8.27614 12 8.5 11.7761 8.5 11.5C8.5 11.2239 8.27614 11 8 11C7.72386 11 7.5 11.2239 7.5 11.5C7.5 11.7761 7.72386 12 8 12Z" fill="#BCC1CD"/>
</g>
<defs>
<clipPath id="clip0_9_4354">
<rect width="16" height="16" fill="white"/>
</clipPath>
</defs>
</svg>
