<svg width="16" height="16" viewBox="0 0 16 16" fill="none" xmlns="http://www.w3.org/2000/svg">
<rect width="16" height="16" rx="8" fill="black"/>
<path d="M12.9301 8.00681L12.6741 7.62161C12.292 7.09488 11.8452 6.6223 11.3973 6.1528L11.2323 5.29687L10.6404 6.38971C11.3536 7.17241 12.0194 8.00312 12.5947 8.8929C13.0384 9.579 13.4531 10.3082 13.6894 11.0952C12.9645 11.0435 12.2397 11.0367 11.5117 11.0404L10.6902 11.0773C10.9844 10.5678 11.5751 10.2497 12.1357 10.1199C11.9228 9.74206 11.668 9.39194 11.4219 9.03627L11.3763 9.0252C9.92291 9.90205 9.02329 11.4379 8.83807 13.1184C8.67009 13.2378 8.45903 13.3455 8.25535 13.3849C7.93045 13.4476 7.63817 13.2963 7.37603 13.1184C7.21235 11.7056 6.56871 10.3857 5.47095 9.47624L6.16751 8.63999C6.99883 9.32548 7.57725 10.2848 7.95814 11.2896C8.00737 11.4189 8.04121 11.5579 8.08736 11.6847C8.09659 11.7099 8.08121 11.7154 8.1249 11.7099C8.54456 10.2842 9.41957 8.90705 10.7265 8.1508L9.37157 6.53431L11.1087 3.41147C11.1474 3.36225 11.2754 3.32286 11.337 3.31425C11.4465 3.29948 11.7572 3.30194 11.8126 3.40778C12.2317 4.92828 12.5922 6.46601 12.9313 8.00681H12.9301Z" fill="white"/>
<path d="M5.52332 11.078L4.82737 11.0608C4.35972 11.0491 3.90621 11.0478 3.43794 11.0608C3.13335 11.0694 2.82876 11.0638 2.52478 11.0958C2.8263 10.1119 3.38195 9.22889 3.96959 8.39511C3.97698 8.3588 3.96159 8.37296 3.94682 8.36434C3.72838 8.23389 3.4164 8.15021 3.17581 8.06037L4.40156 3.4078C4.44832 3.30319 4.77384 3.30073 4.87722 3.31488C4.93875 3.3235 5.06674 3.36226 5.10551 3.41211L6.8426 6.53494C6.57739 6.85307 6.29311 7.15459 6.02974 7.47456C5.65439 7.93114 5.27718 8.42218 4.92029 8.89415C4.62185 9.28858 4.32403 9.68055 4.07912 10.1119L4.61447 10.2983C4.96828 10.486 5.33133 10.7149 5.52332 11.078ZM4.98182 5.29689L4.36772 7.38534C4.35049 7.48564 4.51355 7.48749 4.57508 7.55087L5.57255 6.39034L4.98182 5.29689Z" fill="white"/>
</svg>
