<svg width="16" height="16" viewBox="0 0 16 16" fill="none" xmlns="http://www.w3.org/2000/svg">
<g clip-path="url(#clip0_26_330)">
<path d="M9.33329 1.51306V4.26676C9.33329 4.64012 9.33329 4.82681 9.40595 4.96941C9.46987 5.09486 9.57186 5.19684 9.6973 5.26076C9.83991 5.33342 10.0266 5.33342 10.4 5.33342H13.1537M9.33329 11.3334H5.33329M10.6666 8.66671H5.33329M13.3333 6.65886V11.4667C13.3333 12.5868 13.3333 13.1469 13.1153 13.5747C12.9236 13.951 12.6176 14.257 12.2413 14.4487C11.8134 14.6667 11.2534 14.6667 10.1333 14.6667H5.86663C4.74652 14.6667 4.18647 14.6667 3.75864 14.4487C3.38232 14.257 3.07636 13.951 2.88461 13.5747C2.66663 13.1469 2.66663 12.5868 2.66663 11.4667V4.53337C2.66663 3.41327 2.66663 2.85322 2.88461 2.42539C3.07636 2.04907 3.38232 1.74311 3.75864 1.55136C4.18647 1.33337 4.74652 1.33337 5.86663 1.33337H8.00781C8.49699 1.33337 8.74158 1.33337 8.97176 1.38863C9.17583 1.43763 9.37092 1.51844 9.54986 1.62809C9.7517 1.75178 9.92465 1.92473 10.2706 2.27063L12.396 4.39612C12.7419 4.74202 12.9149 4.91497 13.0386 5.1168C13.1482 5.29575 13.229 5.49084 13.278 5.69491C13.3333 5.92509 13.3333 6.16968 13.3333 6.65886Z" stroke="#FFB900" stroke-linecap="round" stroke-linejoin="round"/>
</g>
<defs>
<clipPath id="clip0_26_330">
<rect width="16" height="16" fill="white"/>
</clipPath>
</defs>
</svg>
