<svg width="36" height="36" viewBox="0 0 36 36" fill="none" xmlns="http://www.w3.org/2000/svg">
<path d="M11.1739 4C15.4962 4 19 7.32915 19 11.4359V31.5128C19 32.3342 18.2992 33 17.4348 33C16.5703 33 15.8696 32.3342 15.8696 31.5128C15.8696 29.8701 14.468 28.5385 12.7391 28.5385H2.56522C1.70077 28.5385 1 27.8726 1 27.0513V5.48718C1 4.66583 1.70077 4 2.56522 4H11.1739Z" fill="url(#paint0_linear_1099_4382)"/>
<path d="M32.4348 4C33.2992 4 34 4.66583 34 5.48718V27.0513C34 27.8726 33.2992 28.5385 32.4348 28.5385H22.2609C20.532 28.5385 19.1304 29.8701 19.1304 31.5128C19.1304 32.3342 18.4297 33 17.5652 33C16.7008 33 16 32.3342 16 31.5128V11.4359C16 7.32915 19.5038 4 23.8261 4H32.4348Z" fill="url(#paint1_linear_1099_4382)"/>
<g filter="url(#filter0_d_1099_4382)">
<path d="M28 13H22M28 21H22" stroke="#63E9AF" stroke-width="3" stroke-linecap="round" stroke-linejoin="round"/>
</g>
<g filter="url(#filter1_d_1099_4382)">
<path d="M11.5 13H5.5M11.5 21H5.5" stroke="#63E9AF" stroke-width="3" stroke-linecap="round" stroke-linejoin="round"/>
</g>
<defs>
<filter id="filter0_d_1099_4382" x="17.8" y="8.8" width="16.4" height="18.4" filterUnits="userSpaceOnUse" color-interpolation-filters="sRGB">
<feFlood flood-opacity="0" result="BackgroundImageFix"/>
<feColorMatrix in="SourceAlpha" type="matrix" values="0 0 0 0 0 0 0 0 0 0 0 0 0 0 0 0 0 0 127 0" result="hardAlpha"/>
<feOffset dx="1" dy="1"/>
<feGaussianBlur stdDeviation="1.85"/>
<feComposite in2="hardAlpha" operator="out"/>
<feColorMatrix type="matrix" values="0 0 0 0 0.321569 0 0 0 0 0.882353 0 0 0 0 0.639216 0 0 0 0.34 0"/>
<feBlend mode="normal" in2="BackgroundImageFix" result="effect1_dropShadow_1099_4382"/>
<feBlend mode="normal" in="SourceGraphic" in2="effect1_dropShadow_1099_4382" result="shape"/>
</filter>
<filter id="filter1_d_1099_4382" x="1.3" y="8.8" width="16.4" height="18.4" filterUnits="userSpaceOnUse" color-interpolation-filters="sRGB">
<feFlood flood-opacity="0" result="BackgroundImageFix"/>
<feColorMatrix in="SourceAlpha" type="matrix" values="0 0 0 0 0 0 0 0 0 0 0 0 0 0 0 0 0 0 127 0" result="hardAlpha"/>
<feOffset dx="1" dy="1"/>
<feGaussianBlur stdDeviation="1.85"/>
<feComposite in2="hardAlpha" operator="out"/>
<feColorMatrix type="matrix" values="0 0 0 0 0.321569 0 0 0 0 0.882353 0 0 0 0 0.639216 0 0 0 0.34 0"/>
<feBlend mode="normal" in2="BackgroundImageFix" result="effect1_dropShadow_1099_4382"/>
<feBlend mode="normal" in="SourceGraphic" in2="effect1_dropShadow_1099_4382" result="shape"/>
</filter>
<linearGradient id="paint0_linear_1099_4382" x1="17.4348" y1="15.1538" x2="11.6957" y2="15.1538" gradientUnits="userSpaceOnUse">
<stop stop-color="white" stop-opacity="0.54"/>
<stop offset="1" stop-color="white"/>
</linearGradient>
<linearGradient id="paint1_linear_1099_4382" x1="25" y1="4" x2="25" y2="33" gradientUnits="userSpaceOnUse">
<stop stop-color="white"/>
<stop offset="1" stop-color="white"/>
</linearGradient>
</defs>
</svg>
