<svg width="12" height="12" viewBox="0 0 12 12" fill="none" xmlns="http://www.w3.org/2000/svg">
<path d="M8.75185 6.70197C8.75185 6.49835 8.91396 6.3333 9.11394 6.3333H9.83812C10.0381 6.3333 10.2002 6.49835 10.2002 6.70197V9.83572C10.2002 10.1412 9.95705 10.3887 9.65708 10.3887H8.75185V6.70197Z" stroke="#2A2F3C" stroke-width="0.996" stroke-linejoin="round"/>
<path d="M7.59416 1.77963C8.50867 1.78013 9.25035 2.52225 9.25041 3.43686V10.8861H2.9594C2.04443 10.8861 1.30217 10.1448 1.30217 9.22983V3.43686C1.30224 2.52195 2.04447 1.77963 2.9594 1.77963H7.59416ZM3.39299 6.4144C3.11802 6.4144 2.89505 6.6375 2.89494 6.91245C2.89494 7.18748 3.11795 7.41049 3.39299 7.41049H6.43498C6.70977 7.4102 6.93303 7.1873 6.93303 6.91245C6.93292 6.63768 6.7097 6.41469 6.43498 6.4144H3.39299ZM3.39299 4.38705C3.11802 4.38705 2.89505 4.61015 2.89494 4.8851C2.89515 5.15997 3.11808 5.38315 3.39299 5.38315H4.74455C5.0194 5.38308 5.2424 5.15992 5.2426 4.8851C5.24249 4.6102 5.01946 4.38713 4.74455 4.38705H3.39299Z" fill="#2A2F3C"/>
</svg>
