<svg width="20" height="20" viewBox="0 0 20 20" fill="none" xmlns="http://www.w3.org/2000/svg">
<path d="M7.77779 3.33333V16.6667M6.8889 3.33333H13.1111C14.3557 3.33333 14.978 3.33333 15.4533 3.57554C15.8715 3.78859 16.2114 4.12855 16.4245 4.54669C16.6667 5.02205 16.6667 5.64433 16.6667 6.88889V13.1111C16.6667 14.3557 16.6667 14.978 16.4245 15.4533C16.2114 15.8715 15.8715 16.2114 15.4533 16.4245C14.978 16.6667 14.3557 16.6667 13.1111 16.6667H6.8889C5.64434 16.6667 5.02206 16.6667 4.5467 16.4245C4.12856 16.2114 3.7886 15.8715 3.57555 15.4533C3.33334 14.978 3.33334 14.3557 3.33334 13.1111V6.88889C3.33334 5.64433 3.33334 5.02205 3.57555 4.54669C3.7886 4.12855 4.12856 3.78859 4.5467 3.57554C5.02206 3.33333 5.64434 3.33333 6.8889 3.33333Z" stroke="#495363" stroke-width="1.25" stroke-linecap="round" stroke-linejoin="round"/>
</svg>
