<svg width="71" height="24" viewBox="0 0 71 24" fill="none" xmlns="http://www.w3.org/2000/svg">
<rect x="0.0421143" y="0.0422363" width="23.9158" height="23.9158" rx="11.9579" fill="url(#paint0_linear_420_25051)"/>
<path d="M19.6916 10.475C20.0943 10.1874 20.5538 9.31541 20.6688 8.80754C20.7354 8.51431 21.0427 6.23939 18.9151 5.56877C16.7882 4.89815 15.287 6.7143 15.287 6.7143C14.5687 7.43262 13.2793 9.77769 13.2793 9.77769C13.353 6.31094 14.5694 5.18786 15.3193 4.7803C14.3028 4.37694 13.1952 4.15527 12.0349 4.15527C10.8746 4.15527 9.73332 4.38396 8.70494 4.79854C9.44712 5.21592 10.6074 6.33269 10.7077 9.64371C10.4713 9.23123 9.37977 7.35195 8.74142 6.7136C8.74142 6.7136 7.24024 4.89745 5.11333 5.56807C2.98642 6.23869 3.29367 8.51361 3.35961 8.80683C3.47465 9.31471 3.93343 10.1867 4.33678 10.4743C4.33678 10.4743 2.94784 12.5486 3.37154 14.9329C3.82049 17.4625 7.60501 18.0679 8.19426 19.9079C8.19426 19.9079 9.75437 17.2429 7.28864 13.3104C5.01793 9.6886 4.80958 10.012 4.27154 8.67075C4.27154 8.67075 3.92501 7.53293 4.9604 6.74727C5.9951 5.9616 7.07819 6.89107 7.07819 6.89107C7.07819 6.89107 6.32129 7.94541 6.11996 8.51993C9.6772 8.00994 10.5134 10.9828 10.5653 11.8064C10.7091 14.0771 10.2068 16.4587 9.80417 17.5368C9.40152 18.615 8.99957 19.7072 9.84696 20.5841C10.6951 21.461 11.802 21.4897 11.9956 21.4897C12.1892 21.4897 13.2969 21.461 14.1443 20.5841C14.9924 19.7072 14.5897 18.615 14.1871 17.5368C13.7844 16.4587 13.3249 14.1304 13.4687 11.8597C13.5206 11.0362 14.723 7.96224 18.2802 8.47222C17.806 7.47541 16.9509 6.89107 16.9509 6.89107C16.9509 6.89107 18.034 5.9616 19.0687 6.74727C20.1034 7.53293 19.7576 8.67075 19.7576 8.67075C19.2202 10.012 19.0112 9.6886 16.7405 13.3104C14.2755 17.2422 15.8349 19.9079 15.8349 19.9079C16.4241 18.0679 20.2079 17.4625 20.6576 14.9329C21.0813 12.5486 19.6923 10.4743 19.6923 10.4743L19.6916 10.475ZM13.8132 19.4105C13.8132 20.0054 13.1187 21.1018 12.0195 21.1018C10.9202 21.1018 10.2258 20.0054 10.2258 19.4105C10.2258 18.8157 11.029 18.333 12.0195 18.333C13.01 18.333 13.8132 18.8157 13.8132 19.4105Z" fill="#F7F7F7"/>
<path d="M9.17554 14.2129C9.4599 14.2129 9.69043 13.9824 9.69043 13.698C9.69043 13.4136 9.4599 13.1831 9.17554 13.1831C8.89117 13.1831 8.66064 13.4136 8.66064 13.698C8.66064 13.9824 8.89117 14.2129 9.17554 14.2129Z" fill="#F7F7F7"/>
<path d="M14.8888 14.2129C15.1732 14.2129 15.4037 13.9824 15.4037 13.698C15.4037 13.4136 15.1732 13.1831 14.8888 13.1831C14.6044 13.1831 14.3739 13.4136 14.3739 13.698C14.3739 13.9824 14.6044 14.2129 14.8888 14.2129Z" fill="#F7F7F7"/>
<path d="M37.0544 3.73682H28.0323C27.8613 3.73682 27.7227 3.87544 27.7227 4.04644V6.12478C27.7227 6.29577 27.8613 6.4344 28.0323 6.4344H30.8852C31.0562 6.4344 31.1948 6.57303 31.1948 6.74402V19.7788C31.1948 19.9498 31.3335 20.0885 31.5045 20.0885H33.5828C33.7538 20.0885 33.8924 19.9498 33.8924 19.7788V6.74348C33.8924 6.57249 34.031 6.43386 34.202 6.43386H37.055C37.226 6.43386 37.3646 6.29523 37.3646 6.12424V4.04644C37.3646 3.87544 37.226 3.73682 37.055 3.73682H37.0544Z" fill="#171717"/>
<path d="M42.7927 7.52148H40.7149C40.5439 7.52148 40.4053 7.66011 40.4053 7.83111V19.8691C40.4053 20.0401 40.5439 20.1787 40.7149 20.1787H42.7927C42.9637 20.1787 43.1023 20.0401 43.1023 19.8691V7.83111C43.1023 7.66011 42.9637 7.52148 42.7927 7.52148Z" fill="#171717"/>
<path d="M42.7927 3.73682H40.7149C40.5439 3.73682 40.4053 3.87544 40.4053 4.04644V6.19868C40.4053 6.36968 40.5439 6.5083 40.7149 6.5083H42.7927C42.9637 6.5083 43.1023 6.36968 43.1023 6.19868V4.04644C43.1023 3.87544 42.9637 3.73682 42.7927 3.73682Z" fill="#171717"/>
<path d="M50.5831 20.1769C48.1347 20.1769 46.1427 18.1935 46.1427 15.7559V8.15781C46.1427 5.72022 48.1347 3.73682 50.5831 3.73682C53.0315 3.73682 55.0235 5.72022 55.0235 8.15781V8.95344C55.0235 9.12444 54.8849 9.26306 54.7139 9.26306H52.6356C52.4646 9.26306 52.3259 9.12444 52.3259 8.95344V8.15781C52.3259 7.20738 51.5438 6.43386 50.5826 6.43386C49.6214 6.43386 48.8392 7.20738 48.8392 8.15781V15.7559C48.8392 16.7064 49.6214 17.4799 50.5826 17.4799C51.5438 17.4799 52.3259 16.7064 52.3259 15.7559V14.0897C52.3259 13.9187 52.1873 13.7801 52.0163 13.7801H50.8917C50.7207 13.7801 50.582 13.6414 50.582 13.4705V11.3921C50.582 11.2211 50.7207 11.0825 50.8917 11.0825H54.7134C54.8844 11.0825 55.023 11.2211 55.023 11.3921V15.7554C55.023 18.193 53.031 20.1764 50.5826 20.1764L50.5831 20.1769Z" fill="#171717"/>
<path d="M62.0781 3.97399L58.073 19.6784C58.0234 19.8742 58.1712 20.064 58.3729 20.064H60.5176C60.6589 20.064 60.7825 19.968 60.8175 19.831L63.3635 9.84762C63.4428 9.53746 63.883 9.53692 63.9628 9.84654L66.5439 19.8321C66.579 19.9686 66.7025 20.064 66.8433 20.064H68.9896C69.1919 20.064 69.3397 19.8731 69.289 19.6773L65.2304 3.97291C65.1954 3.83644 65.0718 3.74097 64.9311 3.74097H62.378C62.2367 3.74097 62.1132 3.83698 62.0781 3.97399Z" fill="#171717"/>
<defs>
<linearGradient id="paint0_linear_420_25051" x1="0.0421142" y1="10.8406" x2="25.2166" y2="10.8406" gradientUnits="userSpaceOnUse">
<stop stop-color="#A940FF"/>
<stop offset="1" stop-color="#0056E8"/>
</linearGradient>
</defs>
</svg>
