<svg width="71" height="24" viewBox="0 0 71 24" fill="none" xmlns="http://www.w3.org/2000/svg">
<rect x="0.0420151" y="0.0422363" width="23.9158" height="23.9158" rx="11.9579" fill="url(#paint0_linear_420_25503)"/>
<path d="M19.6916 10.475C20.0943 10.1874 20.5538 9.31541 20.6688 8.80754C20.7355 8.51431 21.0427 6.23939 18.9151 5.56877C16.7882 4.89815 15.287 6.7143 15.287 6.7143C14.5687 7.43262 13.2794 9.77769 13.2794 9.77769C13.353 6.31094 14.5694 5.18786 15.3193 4.7803C14.3028 4.37694 13.1952 4.15527 12.0349 4.15527C10.8747 4.15527 9.73334 4.38396 8.70496 4.79854C9.44713 5.21592 10.6074 6.33269 10.7077 9.64371C10.4713 9.23123 9.37979 7.35195 8.74144 6.7136C8.74144 6.7136 7.24025 4.89745 5.11334 5.56807C2.98643 6.23869 3.29369 8.51361 3.35963 8.80683C3.47467 9.31471 3.93344 10.1867 4.3368 10.4743C4.3368 10.4743 2.94785 12.5486 3.37155 14.9329C3.8205 17.4625 7.60503 18.0679 8.19427 19.9079C8.19427 19.9079 9.75438 17.2429 7.28865 13.3104C5.01794 9.6886 4.8096 10.012 4.27156 8.67075C4.27156 8.67075 3.92502 7.53293 4.96042 6.74727C5.99511 5.9616 7.07821 6.89107 7.07821 6.89107C7.07821 6.89107 6.3213 7.94541 6.11998 8.51993C9.67722 8.00994 10.5134 10.9828 10.5653 11.8064C10.7091 14.0771 10.2068 16.4587 9.80419 17.5368C9.40153 18.615 8.99958 19.7072 9.84698 20.5841C10.6951 21.461 11.802 21.4897 11.9956 21.4897C12.1892 21.4897 13.2969 21.461 14.1443 20.5841C14.9924 19.7072 14.5897 18.615 14.1871 17.5368C13.7844 16.4587 13.325 14.1304 13.4688 11.8597C13.5207 11.0362 14.723 7.96224 18.2803 8.47222C17.806 7.47541 16.9509 6.89107 16.9509 6.89107C16.9509 6.89107 18.034 5.9616 19.0687 6.74727C20.1034 7.53293 19.7576 8.67075 19.7576 8.67075C19.2202 10.012 19.0112 9.6886 16.7405 13.3104C14.2755 17.2422 15.8349 19.9079 15.8349 19.9079C16.4241 18.0679 20.2079 17.4625 20.6576 14.9329C21.0813 12.5486 19.6923 10.4743 19.6923 10.4743L19.6916 10.475ZM13.8132 19.4105C13.8132 20.0054 13.1187 21.1018 12.0195 21.1018C10.9203 21.1018 10.2258 20.0054 10.2258 19.4105C10.2258 18.8157 11.029 18.333 12.0195 18.333C13.01 18.333 13.8132 18.8157 13.8132 19.4105Z" fill="#F7F7F7"/>
<path d="M9.17552 14.2131C9.45989 14.2131 9.69041 13.9825 9.69041 13.6982C9.69041 13.4138 9.45989 13.1833 9.17552 13.1833C8.89115 13.1833 8.66063 13.4138 8.66063 13.6982C8.66063 13.9825 8.89115 14.2131 9.17552 14.2131Z" fill="#F7F7F7"/>
<path d="M14.8888 14.2131C15.1731 14.2131 15.4037 13.9825 15.4037 13.6982C15.4037 13.4138 15.1731 13.1833 14.8888 13.1833C14.6044 13.1833 14.3739 13.4138 14.3739 13.6982C14.3739 13.9825 14.6044 14.2131 14.8888 14.2131Z" fill="#F7F7F7"/>
<path d="M37.0545 3.73679H28.0323C27.8613 3.73679 27.7227 3.87542 27.7227 4.04641V6.12476C27.7227 6.29575 27.8613 6.43438 28.0323 6.43438H30.8852C31.0562 6.43438 31.1949 6.57301 31.1949 6.744V19.7788C31.1949 19.9498 31.3335 20.0884 31.5045 20.0884H33.5828C33.7538 20.0884 33.8924 19.9498 33.8924 19.7788V6.74346C33.8924 6.57247 34.0311 6.43384 34.2021 6.43384H37.055C37.226 6.43384 37.3646 6.29521 37.3646 6.12422V4.04641C37.3646 3.87542 37.226 3.73679 37.055 3.73679H37.0545Z" fill="#171717"/>
<path d="M42.7927 7.52142H40.7149C40.5439 7.52142 40.4053 7.66005 40.4053 7.83104V19.869C40.4053 20.04 40.5439 20.1787 40.7149 20.1787H42.7927C42.9637 20.1787 43.1024 20.04 43.1024 19.869V7.83104C43.1024 7.66005 42.9637 7.52142 42.7927 7.52142Z" fill="#171717"/>
<path d="M42.7927 3.73682H40.7149C40.5439 3.73682 40.4053 3.87544 40.4053 4.04644V6.19868C40.4053 6.36968 40.5439 6.5083 40.7149 6.5083H42.7927C42.9637 6.5083 43.1024 6.36968 43.1024 6.19868V4.04644C43.1024 3.87544 42.9637 3.73682 42.7927 3.73682Z" fill="#171717"/>
<path d="M50.5831 20.1769C48.1348 20.1769 46.1427 18.1935 46.1427 15.7559V8.15781C46.1427 5.72022 48.1348 3.73682 50.5831 3.73682C53.0315 3.73682 55.0236 5.72022 55.0236 8.15781V8.95344C55.0236 9.12444 54.8849 9.26306 54.7139 9.26306H52.6356C52.4646 9.26306 52.326 9.12444 52.326 8.95344V8.15781C52.326 7.20738 51.5438 6.43386 50.5826 6.43386C49.6214 6.43386 48.8392 7.20738 48.8392 8.15781V15.7559C48.8392 16.7064 49.6214 17.4799 50.5826 17.4799C51.5438 17.4799 52.326 16.7064 52.326 15.7559V14.0897C52.326 13.9187 52.1873 13.7801 52.0164 13.7801H50.8917C50.7207 13.7801 50.5821 13.6414 50.5821 13.4705V11.3921C50.5821 11.2211 50.7207 11.0825 50.8917 11.0825H54.7134C54.8844 11.0825 55.023 11.2211 55.023 11.3921V15.7554C55.023 18.193 53.031 20.1764 50.5826 20.1764L50.5831 20.1769Z" fill="#171717"/>
<path d="M62.0781 3.97405L58.073 19.6784C58.0234 19.8742 58.1712 20.0641 58.3729 20.0641H60.5176C60.6589 20.0641 60.7825 19.9681 60.8175 19.8311L63.3635 9.84768C63.4428 9.53752 63.883 9.53698 63.9628 9.8466L66.5439 19.8321C66.579 19.9686 66.7025 20.0641 66.8433 20.0641H68.9896C69.1919 20.0641 69.3397 19.8731 69.289 19.6773L65.2304 3.97297C65.1954 3.8365 65.0718 3.74103 64.9311 3.74103H62.378C62.2367 3.74103 62.1132 3.83704 62.0781 3.97405Z" fill="#171717"/>
<defs>
<linearGradient id="paint0_linear_420_25503" x1="0.042015" y1="10.8406" x2="25.2165" y2="10.8406" gradientUnits="userSpaceOnUse">
<stop stop-color="#A940FF"/>
<stop offset="1" stop-color="#0056E8"/>
</linearGradient>
</defs>
</svg>
