<svg width="12" height="12" viewBox="0 0 12 12" fill="none" xmlns="http://www.w3.org/2000/svg">
<path d="M11.07 8.80878C11.0697 9.8852 10.1972 10.7585 9.12082 10.759H2.88058C1.80378 10.759 0.930682 9.88551 0.930389 8.80878V4.89764C0.936404 4.89795 0.942871 4.8996 0.948944 4.8996H11.0515C11.0575 4.89952 11.0641 4.89787 11.07 4.89764V8.80878ZM8.21652 5.98358C8.03381 5.80596 7.74102 5.80979 7.5632 5.99237L5.57297 8.03534L4.58957 7.05194C4.40932 6.87235 4.11737 6.87217 3.93723 7.05194C3.7571 7.23218 3.75721 7.52496 3.93723 7.70526L5.25168 9.01971C5.33887 9.10689 5.4575 9.15611 5.58078 9.15546C5.70421 9.15463 5.82275 9.10418 5.90891 9.01581L8.22531 6.6369C8.40308 6.4542 8.39915 6.16144 8.21652 5.98358ZM3.39621 2.53046C3.39634 2.83549 3.64388 3.08319 3.94894 3.08319C4.25351 3.0826 4.50155 2.83513 4.50168 2.53046V1.39862H7.5007V2.53046C7.50083 2.83549 7.74837 3.08319 8.05344 3.08319C8.35807 3.08268 8.60604 2.83517 8.60617 2.53046V1.39862H9.12082C10.1974 1.39913 11.07 2.27215 11.07 3.34882V3.95331C11.0641 3.95308 11.0575 3.95237 11.0515 3.95233H0.948944C0.942869 3.95233 0.936407 3.95305 0.930389 3.95331V3.34882C0.930389 2.27183 1.8036 1.39862 2.88058 1.39862H3.39621V2.53046Z" fill="#2A2F3C"/>
</svg>
