<svg width="12" height="12" viewBox="0 0 12 12" fill="none" xmlns="http://www.w3.org/2000/svg">
<path d="M3.72478 1.56C5.16538 1.56012 6.33311 2.66973 6.33318 4.03851V10.7309C6.33318 11.0046 6.09975 11.2269 5.81169 11.227C5.52354 11.227 5.29021 11.0047 5.29021 10.7309C5.29018 10.1834 4.82254 9.73969 4.24626 9.73969H0.85466C0.566657 9.73952 0.333176 9.51727 0.333176 9.24359V2.05609C0.333176 1.78241 0.566657 1.56016 0.85466 1.56H3.72478ZM1.83318 6.72699C1.55706 6.72702 1.33318 6.95087 1.33318 7.22699C1.33335 7.50296 1.55717 7.72696 1.83318 7.72699H3.83318C4.10921 7.72699 4.333 7.50298 4.33318 7.22699C4.33318 6.95085 4.10932 6.72699 3.83318 6.72699H1.83318ZM1.83318 4.06C1.55717 4.06003 1.33335 4.28403 1.33318 4.56C1.33335 4.83597 1.55717 5.05996 1.83318 5.06H3.83318C4.10921 5.06 4.333 4.83599 4.33318 4.56C4.333 4.284 4.10921 4.06 3.83318 4.06H1.83318Z" fill="#2A2F3C"/>
<path d="M10.8116 1.56C11.0997 1.56 11.333 1.78231 11.333 2.05609V9.24359C11.333 9.51737 11.0997 9.73969 10.8116 9.73969H7.41995C6.84386 9.73989 6.37701 10.1835 6.37698 10.7309C6.37698 11.0046 6.14348 11.2268 5.8555 11.227C5.56735 11.227 5.33304 11.0047 5.33304 10.7309V4.03851C5.3331 2.66965 6.50171 1.56 7.94241 1.56H10.8116ZM7.33304 6.72699C7.05697 6.72708 6.83304 6.9509 6.83304 7.22699C6.83322 7.50293 7.05708 7.7269 7.33304 7.72699H9.33304C9.60907 7.72699 9.83286 7.50298 9.83304 7.22699C9.83304 6.95085 9.60918 6.72699 9.33304 6.72699H7.33304ZM7.33304 4.06C7.05708 4.06008 6.83321 4.28406 6.83304 4.56C6.83322 4.83594 7.05708 5.05991 7.33304 5.06H9.33304C9.60907 5.06 9.83286 4.83599 9.83304 4.56C9.83286 4.284 9.60907 4.06 9.33304 4.06H7.33304Z" fill="url(#paint0_linear_416_19182)"/>
<defs>
<linearGradient id="paint0_linear_416_19182" x1="11.4" y1="6.141" x2="5.68817" y2="6.141" gradientUnits="userSpaceOnUse">
<stop stop-color="#2A2F3C"/>
<stop offset="1" stop-color="#2A2F3C"/>
</linearGradient>
</defs>
</svg>
