<svg width="12" height="12" viewBox="0 0 12 12" fill="none" xmlns="http://www.w3.org/2000/svg">
<path d="M8.3999 1.67999C9.31105 1.67999 10.0501 2.41928 10.0503 3.33038V10.3021C10.0503 10.7332 9.60843 11.0243 9.2124 10.8538L6.53369 9.7005C6.19303 9.55392 5.80696 9.55389 5.46631 9.7005L2.7876 10.8538C2.39157 11.0243 1.94971 10.7332 1.94971 10.3021V3.33038C1.9499 2.41931 2.68899 1.68005 3.6001 1.67999H8.3999ZM5.99951 3.55109C5.9164 3.55137 5.83983 3.59951 5.80322 3.67413L5.18506 4.93292L3.78271 5.13702C3.70065 5.14899 3.63182 5.20668 3.60596 5.28546C3.58022 5.36443 3.60232 5.45194 3.66162 5.51007L4.67725 6.50323L4.43506 7.88507C4.42064 7.96725 4.45454 8.05081 4.52197 8.09991C4.58962 8.14898 4.67966 8.15483 4.75342 8.11554L5.99951 7.4505L7.24658 8.11554C7.32021 8.15469 7.40947 8.14878 7.47705 8.09991C7.5447 8.0509 7.57833 7.96737 7.56396 7.88507L7.32275 6.50323L8.33838 5.51007C8.39773 5.45193 8.41881 5.36445 8.39307 5.28546C8.36715 5.20686 8.29921 5.14901 8.21729 5.13702L6.8208 4.9339L6.1958 3.67218C6.15877 3.59805 6.08238 3.55104 5.99951 3.55109Z" fill="#2A2F3C"/>
</svg>
