<svg width="12" height="12" viewBox="0 0 12 12" fill="none" xmlns="http://www.w3.org/2000/svg">
<path d="M8.75185 6.70199C8.75185 6.49837 8.91396 6.33331 9.11394 6.33331H9.83812C10.0381 6.33331 10.2002 6.49837 10.2002 6.70199V9.83574C10.2002 10.1412 9.95705 10.3888 9.65708 10.3888H8.75185V6.70199Z" stroke="#2A2F3C" stroke-width="0.996" stroke-linejoin="round"/>
<path d="M7.59416 1.77966C8.50867 1.78016 9.25035 2.52228 9.25041 3.43689V10.8861H2.9594C2.04443 10.8861 1.30217 10.1448 1.30217 9.22986V3.43689C1.30224 2.52198 2.04447 1.77966 2.9594 1.77966H7.59416ZM3.39299 6.41443C3.11802 6.41443 2.89505 6.63753 2.89494 6.91248C2.89494 7.18751 3.11795 7.41052 3.39299 7.41052H6.43498C6.70977 7.41023 6.93303 7.18733 6.93303 6.91248C6.93292 6.63771 6.7097 6.41472 6.43498 6.41443H3.39299ZM3.39299 4.38708C3.11802 4.38708 2.89505 4.61018 2.89494 4.88513C2.89515 5.16 3.11808 5.38318 3.39299 5.38318H4.74455C5.0194 5.38311 5.2424 5.15995 5.2426 4.88513C5.24249 4.61023 5.01946 4.38716 4.74455 4.38708H3.39299Z" fill="#2A2F3C"/>
</svg>
