<svg width="20" height="20" viewBox="0 0 20 20" fill="none" xmlns="http://www.w3.org/2000/svg">
<path d="M7.77778 3.33334V16.6667M6.88889 3.33334H13.1111C14.3557 3.33334 14.978 3.33334 15.4533 3.57554C15.8715 3.7886 16.2114 4.12855 16.4245 4.54669C16.6667 5.02205 16.6667 5.64433 16.6667 6.88889V13.1111C16.6667 14.3557 16.6667 14.978 16.4245 15.4533C16.2114 15.8715 15.8715 16.2114 15.4533 16.4245C14.978 16.6667 14.3557 16.6667 13.1111 16.6667H6.88889C5.64433 16.6667 5.02205 16.6667 4.54669 16.4245C4.12855 16.2114 3.7886 15.8715 3.57554 15.4533C3.33334 14.978 3.33334 14.3557 3.33334 13.1111V6.88889C3.33334 5.64433 3.33334 5.02205 3.57554 4.54669C3.7886 4.12855 4.12855 3.7886 4.54669 3.57554C5.02205 3.33334 5.64433 3.33334 6.88889 3.33334Z" stroke="#495363" stroke-width="1.25" stroke-linecap="round" stroke-linejoin="round"/>
</svg>
