<svg width="20" height="20" viewBox="0 0 20 20" fill="none" xmlns="http://www.w3.org/2000/svg">
<path d="M7.77782 3.33325V16.6666M6.88893 3.33325H13.1112C14.3557 3.33325 14.978 3.33325 15.4534 3.57546C15.8715 3.78851 16.2114 4.12847 16.4245 4.54661C16.6667 5.02197 16.6667 5.64425 16.6667 6.88881V13.111C16.6667 14.3556 16.6667 14.9779 16.4245 15.4532C16.2114 15.8714 15.8715 16.2113 15.4534 16.4244C14.978 16.6666 14.3557 16.6666 13.1112 16.6666H6.88893C5.64437 16.6666 5.02209 16.6666 4.54673 16.4244C4.12859 16.2113 3.78863 15.8714 3.57558 15.4532C3.33337 14.9779 3.33337 14.3556 3.33337 13.111V6.88881C3.33337 5.64425 3.33337 5.02197 3.57558 4.54661C3.78863 4.12847 4.12859 3.78851 4.54673 3.57546C5.02209 3.33325 5.64437 3.33325 6.88893 3.33325Z" stroke="#495363" stroke-width="1.25" stroke-linecap="round" stroke-linejoin="round"/>
</svg>
