<svg width="12" height="12" viewBox="0 0 12 12" fill="none" xmlns="http://www.w3.org/2000/svg">
<path d="M4.19998 10.8L5.99998 9" stroke="#2A2F3C" stroke-linecap="round"/>
<path d="M7.79999 10.8L5.99999 9" stroke="#2A2F3C" stroke-linecap="round"/>
<path d="M10.6668 7.66699C10.6666 8.58729 9.92018 9.33301 8.99983 9.33301H2.99983C2.07953 9.33295 1.33305 8.58726 1.33284 7.66699V2H10.6668V7.66699ZM3.99983 5.61133C3.72376 5.61141 3.49983 5.83523 3.49983 6.11133V7C3.49985 7.27608 3.72376 7.49992 3.99983 7.5C4.27597 7.5 4.49982 7.27613 4.49983 7V6.11133C4.49983 5.83519 4.27597 5.61133 3.99983 5.61133ZM5.99983 4.5C5.72376 4.50008 5.49983 4.72391 5.49983 5V7C5.49985 7.27608 5.72377 7.49992 5.99983 7.5C6.27597 7.5 6.49982 7.27613 6.49983 7V5C6.49983 4.72386 6.27597 4.5 5.99983 4.5ZM7.99983 3.83301C7.72387 3.83309 7.50001 4.05706 7.49983 4.33301V7C7.49985 7.27608 7.72377 7.49992 7.99983 7.5C8.27597 7.5 8.49982 7.27613 8.49983 7V4.33301C8.49966 4.05701 8.27587 3.83301 7.99983 3.83301Z" fill="#2A2F3C"/>
<path d="M1.19998 2.40002L10.8 2.40002" stroke="#2A2F3C" stroke-width="1.2" stroke-linecap="round"/>
</svg>
