<svg width="12" height="12" viewBox="0 0 12 12" fill="none" xmlns="http://www.w3.org/2000/svg">
<path d="M6.93965 1.20001C7.37519 1.20001 7.79623 1.35779 8.12422 1.64435L8.90742 2.3299L9.58418 2.92072C9.97525 3.26249 10.2003 3.75683 10.2004 4.27618V8.99982C10.2004 9.99393 9.39372 10.8006 8.39961 10.8006H3.59981C2.6058 10.8005 1.8 9.99385 1.8 8.99982V2.99982C1.80017 2.00592 2.6059 1.20014 3.59981 1.20001H6.93965ZM4.20039 6.69806C3.92295 6.69806 3.69844 6.92257 3.69844 7.20001C3.69845 7.47745 3.92296 7.70197 4.20039 7.70197H7.8C8.07727 7.70176 8.30293 7.47732 8.30293 7.20001C8.30293 6.9227 8.07727 6.69826 7.8 6.69806H4.20039ZM4.23457 4.29767C3.95739 4.29781 3.73283 4.52245 3.73262 4.79962C3.73263 5.07697 3.95726 5.3024 4.23457 5.30255H7.70625C7.98352 5.30235 8.2082 5.07693 8.20821 4.79962C8.20799 4.52248 7.98339 4.29787 7.70625 4.29767H4.23457Z" fill="#2A2F3C"/>
</svg>
