<svg width="16" height="16" viewBox="0 0 16 16" fill="none" xmlns="http://www.w3.org/2000/svg">
<g clip-path="url(#clip0_474_5894)">
<path d="M9.33332 1.51306V4.26676C9.33332 4.64012 9.33332 4.82681 9.40599 4.96941C9.4699 5.09486 9.57189 5.19684 9.69733 5.26076C9.83994 5.33342 10.0266 5.33342 10.4 5.33342H13.1537M9.33332 11.3334H5.33332M10.6667 8.66671H5.33332M13.3333 6.65886V11.4667C13.3333 12.5868 13.3333 13.1469 13.1153 13.5747C12.9236 13.951 12.6176 14.257 12.2413 14.4487C11.8135 14.6667 11.2534 14.6667 10.1333 14.6667H5.86666C4.74655 14.6667 4.1865 14.6667 3.75868 14.4487C3.38235 14.257 3.07639 13.951 2.88464 13.5747C2.66666 13.1469 2.66666 12.5868 2.66666 11.4667V4.53337C2.66666 3.41327 2.66666 2.85322 2.88464 2.42539C3.07639 2.04907 3.38235 1.74311 3.75868 1.55136C4.1865 1.33337 4.74655 1.33337 5.86666 1.33337H8.00784C8.49702 1.33337 8.74161 1.33337 8.97179 1.38863C9.17586 1.43763 9.37095 1.51844 9.54989 1.62809C9.75173 1.75178 9.92468 1.92473 10.2706 2.27063L12.3961 4.39612C12.742 4.74202 12.9149 4.91497 13.0386 5.1168C13.1483 5.29575 13.2291 5.49084 13.2781 5.69491C13.3333 5.92509 13.3333 6.16968 13.3333 6.65886Z" stroke="#858B9B" stroke-linecap="round" stroke-linejoin="round"/>
</g>
<defs>
<clipPath id="clip0_474_5894">
<rect width="16" height="16" fill="white"/>
</clipPath>
</defs>
</svg>
