<svg width="16" height="16" viewBox="0 0 16 16" fill="none" xmlns="http://www.w3.org/2000/svg">
<g clip-path="url(#clip0_474_5932)">
<path d="M9.33329 1.51306V4.26676C9.33329 4.64012 9.33329 4.82681 9.40595 4.96941C9.46987 5.09486 9.57186 5.19684 9.6973 5.26076C9.83991 5.33342 10.0266 5.33342 10.4 5.33342H13.1537M13.3333 8.66671C13.3333 8.17753 13.3333 5.92509 13.278 5.69491C13.229 5.49084 13.1482 5.29575 13.0386 5.1168C12.9149 4.91497 12.7419 4.74202 12.396 4.39612L10.2706 2.27063C9.92465 1.92473 9.7517 1.75178 9.54986 1.62809C9.37092 1.51844 9.17583 1.43763 8.97176 1.38863C8.74158 1.33337 8.49699 1.33337 8.00781 1.33337H5.86663C4.74652 1.33337 4.18647 1.33337 3.75864 1.55136C3.38232 1.74311 3.07636 2.04907 2.88461 2.42539C2.66663 2.85322 2.66663 3.41327 2.66663 4.53337V11.4667C2.66663 12.5868 2.66663 13.1469 2.88461 13.5747C3.07636 13.951 3.38232 14.257 3.75864 14.4487C4.18647 14.6667 4.74652 14.6667 5.86663 14.6667H7.66663M7.33329 10H4.66663M9.33329 7.00004H4.66663" stroke="#858B9B" stroke-linecap="round" stroke-linejoin="round"/>
<path d="M11 14.1666C12.6569 14.1666 14 12.1666 14 12.1666C14 12.1666 12.6569 10.1666 11 10.1666C9.34313 10.1666 8 12.1666 8 12.1666C8 12.1666 9.34313 14.1666 11 14.1666Z" stroke="#858B9B" stroke-linejoin="round"/>
<path d="M11.0004 12.0328C11.0739 12.033 11.1332 12.0931 11.1332 12.1666C11.133 12.24 11.0738 12.2993 11.0004 12.2994C10.9268 12.2994 10.8668 12.2401 10.8666 12.1666C10.8666 12.093 10.9267 12.0328 11.0004 12.0328Z" fill="#858B9B" stroke="#858B9B" stroke-width="1.06667"/>
</g>
<defs>
<clipPath id="clip0_474_5932">
<rect width="16" height="16" fill="white"/>
</clipPath>
</defs>
</svg>
