<svg width="16" height="16" viewBox="0 0 16 16" fill="none" xmlns="http://www.w3.org/2000/svg">
<path d="M2.80554 11.9722C2.80554 9.61843 2.80554 4.02778 2.80554 4.02778C2.80554 3.01525 3.62635 2.19444 4.63888 2.19444H11.3611V10.1389C11.3611 10.1389 6.23773 10.1389 4.63888 10.1389C3.63054 10.1389 2.80554 10.9591 2.80554 11.9722Z" stroke="#171717" stroke-width="1.3" stroke-linejoin="round"/>
<path d="M11.3611 10.1389C11.3611 10.1389 4.99139 10.1389 4.63888 10.1389C3.62635 10.1389 2.80554 10.9597 2.80554 11.9722C2.80554 12.9847 3.62635 13.8056 4.63888 13.8056C5.31388 13.8056 8.57315 13.8056 13.1944 13.8056V2.80556" stroke="#171717" stroke-width="1.3" stroke-linecap="round" stroke-linejoin="round"/>
<path d="M4.94446 11.9723H11.0556" stroke="#171717" stroke-width="1.3" stroke-linecap="round" stroke-linejoin="round"/>
</svg>
