<svg width="20" height="20" viewBox="0 0 20 20" fill="none" xmlns="http://www.w3.org/2000/svg">
<path d="M7.77776 3.33333V16.6667M6.88887 3.33333H13.1111C14.3557 3.33333 14.9779 3.33333 15.4533 3.57554C15.8714 3.78859 16.2114 4.12855 16.4244 4.54669C16.6666 5.02205 16.6666 5.64433 16.6666 6.88889V13.1111C16.6666 14.3557 16.6666 14.978 16.4244 15.4533C16.2114 15.8715 15.8714 16.2114 15.4533 16.4245C14.9779 16.6667 14.3557 16.6667 13.1111 16.6667H6.88887C5.64431 16.6667 5.02203 16.6667 4.54667 16.4245C4.12853 16.2114 3.78857 15.8715 3.57552 15.4533C3.33331 14.978 3.33331 14.3557 3.33331 13.1111V6.88889C3.33331 5.64433 3.33331 5.02205 3.57552 4.54669C3.78857 4.12855 4.12853 3.78859 4.54667 3.57554C5.02203 3.33333 5.64431 3.33333 6.88887 3.33333Z" stroke="#495363" stroke-width="1.25" stroke-linecap="round" stroke-linejoin="round"/>
</svg>
