<svg width="24" height="24" viewBox="0 0 24 24" fill="none" xmlns="http://www.w3.org/2000/svg">
<rect x="-5.91278e-05" width="23.9158" height="23.9158" rx="11.9579" fill="url(#paint0_linear_476_5797)"/>
<path d="M19.6496 10.433C20.0522 10.1454 20.5117 9.27342 20.6267 8.76554C20.6934 8.47232 21.0006 6.1974 18.873 5.52678C16.7461 4.85616 15.2449 6.67231 15.2449 6.67231C14.5266 7.39063 13.2373 9.7357 13.2373 9.7357C13.3109 6.26895 14.5273 5.14587 15.2772 4.73831C14.2607 4.33495 13.1531 4.11328 11.9928 4.11328C10.8326 4.11328 9.69126 4.34197 8.66288 4.75654C9.40505 5.17393 10.5653 6.2907 10.6656 9.60172C10.4292 9.18924 9.33771 7.30996 8.69936 6.6716C8.69936 6.6716 7.19817 4.85545 5.07127 5.52608C2.94436 6.1967 3.25161 8.47162 3.31755 8.76484C3.43259 9.27272 3.89136 10.1447 4.29472 10.4323C4.29472 10.4323 2.90577 12.5066 3.32947 14.8909C3.77842 17.4205 7.56295 18.0259 8.1522 19.8659C8.1522 19.8659 9.7123 17.2009 7.24658 13.2684C4.97586 9.64661 4.76752 9.97 4.22948 8.62875C4.22948 8.62875 3.88295 7.49094 4.91834 6.70528C5.95303 5.91961 7.03613 6.84908 7.03613 6.84908C7.03613 6.84908 6.27923 7.90342 6.0779 8.47793C9.63514 7.96795 10.4713 10.9409 10.5232 11.7644C10.667 14.0351 10.1648 16.4167 9.76211 17.4948C9.35946 18.573 8.9575 19.6653 9.8049 20.5421C10.653 21.419 11.7599 21.4477 11.9536 21.4477C12.1472 21.4477 13.2548 21.419 14.1022 20.5421C14.9503 19.6653 14.5477 18.573 14.145 17.4948C13.7423 16.4167 13.2829 14.0884 13.4267 11.8177C13.4786 10.9942 14.6809 7.92025 18.2382 8.43023C17.764 7.43342 16.9089 6.84908 16.9089 6.84908C16.9089 6.84908 17.992 5.91961 19.0266 6.70528C20.0613 7.49094 19.7155 8.62875 19.7155 8.62875C19.1782 9.97 18.9691 9.64661 16.6984 13.2684C14.2334 17.2002 15.7928 19.8659 15.7928 19.8659C16.382 18.0259 20.1659 17.4205 20.6155 14.8909C21.0392 12.5066 19.6503 10.4323 19.6503 10.4323L19.6496 10.433ZM13.7711 19.3685C13.7711 19.9634 13.0766 21.0598 11.9774 21.0598C10.8782 21.0598 10.1837 19.9634 10.1837 19.3685C10.1837 18.7737 10.9869 18.291 11.9774 18.291C12.9679 18.291 13.7711 18.7737 13.7711 19.3685Z" fill="#F7F7F7"/>
<path d="M9.13344 14.1704C9.41781 14.1704 9.64833 13.9399 9.64833 13.6555C9.64833 13.3711 9.41781 13.1406 9.13344 13.1406C8.84908 13.1406 8.61855 13.3711 8.61855 13.6555C8.61855 13.9399 8.84908 14.1704 9.13344 14.1704Z" fill="#F7F7F7"/>
<path d="M14.8467 14.1704C15.1311 14.1704 15.3616 13.9399 15.3616 13.6555C15.3616 13.3711 15.1311 13.1406 14.8467 13.1406C14.5623 13.1406 14.3318 13.3711 14.3318 13.6555C14.3318 13.9399 14.5623 14.1704 14.8467 14.1704Z" fill="#F7F7F7"/>
<defs>
<linearGradient id="paint0_linear_476_5797" x1="-5.91757e-05" y1="10.7984" x2="25.1745" y2="10.7984" gradientUnits="userSpaceOnUse">
<stop stop-color="#A940FF"/>
<stop offset="1" stop-color="#0056E8"/>
</linearGradient>
</defs>
</svg>
