<svg width="24" height="19" viewBox="0 0 24 19" fill="none" xmlns="http://www.w3.org/2000/svg">
<path d="M1.875 0.796787C1.875 0.205449 2.35437 -0.273926 2.94571 -0.273926H8.80117C9.1265 -0.273926 9.43419 -0.126011 9.63738 0.128065L10.5535 1.27366C10.7567 1.52774 11.0644 1.67565 11.3897 1.67565H21.0543C21.6456 1.67565 22.125 2.15503 22.125 2.74637V11.7261H1.875V0.796787Z" fill="#F9A415"/>
<path d="M3.4421 4.61076C3.4057 3.99563 3.89474 3.47681 4.51094 3.47681H20.2512C20.8629 3.47681 21.3502 3.98833 21.3207 4.59927L20.7348 16.7078C20.7072 17.2784 20.2365 17.7268 19.6653 17.7268H5.22741C4.66064 17.7268 4.19205 17.2851 4.15857 16.7193L3.4421 4.61076Z" fill="white"/>
<path d="M1.21189 6.12736C1.165 5.50604 1.65648 4.97607 2.27956 4.97607H21.7362C22.3534 4.97607 22.8429 5.49664 22.8048 6.11274L22.1038 17.4713C22.069 18.036 21.6009 18.4761 21.0351 18.4761H3.1368C2.57672 18.4761 2.11127 18.0444 2.06912 17.4859L1.21189 6.12736Z" fill="#FEC517"/>
</svg>
