<svg width="24" height="24" viewBox="0 0 24 24" fill="none" xmlns="http://www.w3.org/2000/svg">
<rect opacity="0.01" width="24" height="24" fill="white"/>
<path d="M15.0667 1.33333L20.3997 6.66634V20.0003C20.3995 21.4728 19.2061 22.6661 17.7336 22.6663H6.00024C4.52759 22.6663 3.33343 21.4729 3.33325 20.0003V4.00032C3.33325 2.52756 4.52748 1.33333 6.00024 1.33333H15.0667Z" fill="#FF4D4F"/>
<path fill-rule="evenodd" clip-rule="evenodd" d="M15.0667 1.33333L20.4 6.66666H16.4C15.6636 6.66666 15.0667 6.06971 15.0667 5.33333V1.33333Z" fill="#F8BBBF"/>
<path fill-rule="evenodd" clip-rule="evenodd" d="M15.8399 13.364C15.3524 13.3483 14.8339 13.3855 14.2448 13.4592C13.4641 12.9777 12.9386 12.316 12.5653 11.3443L12.5995 11.2036C12.6147 11.1407 12.6273 11.0881 12.6394 11.037C12.7773 10.4545 12.8519 10.0295 12.8739 9.60106C12.8906 9.2774 12.8726 8.9788 12.8152 8.70224C12.7093 8.10517 12.2866 7.75597 11.7543 7.73435C11.2581 7.71421 10.8018 7.99115 10.6851 8.42103C10.4951 9.11538 10.6064 10.0297 11.0089 11.5883C10.496 12.8109 9.8185 14.244 9.36386 15.0433C8.75711 15.3562 8.28422 15.641 7.88747 15.9566C7.36368 16.3732 7.03671 16.8012 6.94656 17.2516C6.90303 17.4597 6.96879 17.7324 7.11877 17.9555C7.28892 18.2087 7.54549 18.3729 7.85306 18.3968C8.62902 18.4571 9.58252 17.6571 10.635 15.8504C10.7409 15.8154 10.8529 15.7779 10.9893 15.7319L11.3719 15.6025C11.6136 15.5209 11.789 15.4624 11.9623 15.406C12.714 15.1615 13.2827 15.0067 13.8004 14.9189C14.6991 15.3999 15.7382 15.7155 16.438 15.7155C17.0157 15.7155 17.4059 15.4161 17.547 14.9449C17.6709 14.5309 17.5725 14.051 17.3069 13.7856C17.0318 13.5154 16.5261 13.3861 15.8399 13.364ZM7.87262 17.4899V17.4783L7.87667 17.4675C7.91764 17.3575 7.9781 17.2423 8.05659 17.1218C8.19423 16.9105 8.38343 16.6881 8.61794 16.4515C8.74388 16.3244 8.87503 16.2009 9.02886 16.0621L9.10433 15.9945C9.18318 15.924 9.29583 15.8233 9.32408 15.797L9.68315 15.4627L9.42227 15.8782C9.02625 16.5091 8.66854 16.9635 8.36162 17.2598C8.24894 17.3687 8.14957 17.4494 8.06954 17.501C8.03654 17.5222 8.00798 17.5377 7.98559 17.5467C7.97245 17.552 7.96082 17.5553 7.94928 17.5564C7.93708 17.5579 7.92471 17.5561 7.91339 17.5513C7.88866 17.5409 7.87258 17.5167 7.87262 17.4899ZM12.1225 10.6061L12.2774 10.4773C12.5286 10.2684 12.6825 9.7909 12.6677 9.33211C12.6509 8.81019 12.4391 8.46295 11.9773 8.46295C11.6486 8.46295 11.566 8.75615 11.615 9.2444C11.6581 9.67351 11.8139 10.1494 12.0273 10.4652L12.1225 10.6061ZM11.732 12.3557L11.7813 12.2255L11.8484 12.3475C12.2239 13.03 12.7113 13.5994 13.2472 13.9961L13.3627 14.0816L13.2219 14.1107C12.6974 14.219 12.2085 14.3824 11.5404 14.6518C11.6102 14.6236 10.8456 14.9365 10.6524 15.0106L10.4837 15.0753L10.5737 14.9186C10.9705 14.228 11.337 13.3981 11.732 12.3557H11.732ZM15.043 14.5303C16.0002 15.2778 16.5436 15.441 16.7962 15.2585C16.8287 15.2351 16.8514 15.2085 16.8658 15.1834C16.9324 15.0952 16.9517 14.9497 16.9096 14.8124C16.8706 14.6851 16.7828 14.574 16.6514 14.486C16.3425 14.279 15.812 14.2035 15.0635 14.3049L14.8001 14.3406L15.043 14.5303Z" fill="white"/>
</svg>
