<svg width="24" height="24" viewBox="0 0 24 24" fill="none" xmlns="http://www.w3.org/2000/svg">
<rect opacity="0.01" width="24" height="24" fill="white"/>
<path d="M15.0667 1.33334L20.3997 6.66635V20.0003C20.3995 21.4728 19.2061 22.6661 17.7336 22.6664H6.00024C4.52759 22.6664 3.33343 21.4729 3.33325 20.0003V4.00034C3.33325 2.52758 4.52748 1.33334 6.00024 1.33334H15.0667Z" fill="#1677FF"/>
<path fill-rule="evenodd" clip-rule="evenodd" d="M15.0667 1.33334L20.4 6.66668H16.4C15.6636 6.66668 15.0667 6.06972 15.0667 5.33334V1.33334Z" fill="#BCD4F6"/>
<path fill-rule="evenodd" clip-rule="evenodd" d="M8.94008 15.7333H10.7641L11.8105 11.5093H11.8681L12.8953 15.7333H14.7193L16.2457 9.07092H14.7385L13.7593 13.9957H13.7017L12.7417 9.71412H11.0521L10.0345 13.9957H9.97688L9.01688 9.07092H7.49048L8.94008 15.7333Z" fill="white"/>
</svg>
