<svg width="16" height="16" viewBox="0 0 16 16" fill="none" xmlns="http://www.w3.org/2000/svg">
<g clip-path="url(#clip0_4_560)">
<path d="M7.99992 1.33337C9.99992 2.66671 10.6151 5.52806 10.6666 8.00004C10.6151 10.472 9.99992 13.3334 7.99992 14.6667M7.99992 1.33337C5.99992 2.66671 5.38475 5.52806 5.33325 8.00004C5.38475 10.472 5.99992 13.3334 7.99992 14.6667M7.99992 1.33337C4.31802 1.33337 1.33325 4.31814 1.33325 8.00004M7.99992 1.33337C11.6818 1.33337 14.6666 4.31814 14.6666 8.00004M7.99992 14.6667C11.6818 14.6667 14.6666 11.6819 14.6666 8.00004M7.99992 14.6667C4.31802 14.6667 1.33325 11.6819 1.33325 8.00004M14.6666 8.00004C13.3333 10 10.4719 10.6152 7.99992 10.6667C5.52794 10.6152 2.66659 10 1.33325 8.00004M14.6666 8.00004C13.3333 6.00004 10.4719 5.38487 7.99992 5.33337C5.52794 5.38487 2.66659 6.00004 1.33325 8.00004" stroke="#495363" stroke-linecap="round" stroke-linejoin="round"/>
</g>
<defs>
<clipPath id="clip0_4_560">
<rect width="16" height="16" fill="white"/>
</clipPath>
</defs>
</svg>
