<svg width="24" height="24" viewBox="0 0 24 24" fill="none" xmlns="http://www.w3.org/2000/svg">
<rect width="24" height="24" rx="8.72727" fill="#0056E8" fill-opacity="0.3"/>
<path d="M11.4484 5.17734L11.4621 5.1702C11.4759 5.16296 11.4899 5.15612 11.504 5.1496L11.5299 5.13805L11.5672 5.12282L11.6032 5.10962L11.6473 5.09558L11.6851 5.0851L11.7141 5.07812L11.7545 5.06982L11.7861 5.06448L11.8289 5.05881L11.8788 5.05445L11.9238 5.0525L11.9473 5.05225L11.9657 5.05241L12.007 5.05391L12.0359 5.05592L12.0811 5.06073L12.108 5.06443L12.1515 5.07202L12.1977 5.08227L12.2366 5.09244L12.2545 5.09779C12.2788 5.10509 12.3026 5.11331 12.3261 5.12234L12.3502 5.13196L12.3798 5.14474C12.3975 5.15266 12.415 5.16114 12.4324 5.17013L12.4634 5.18691L12.4996 5.20817L12.5129 5.21661C12.5544 5.24291 12.5944 5.2725 12.6327 5.30527L12.6493 5.31983L12.6767 5.34517L12.693 5.36116L16.7948 9.46293C17.2067 9.87481 17.2067 10.5426 16.7948 10.9545C16.3829 11.3664 15.7151 11.3664 15.3032 10.9545L13.0018 8.65316L13.0019 17.8931C13.0019 18.4756 12.5297 18.9478 11.9472 18.9478C11.3647 18.9478 10.8925 18.4756 10.8925 17.8931L10.8925 8.65316L8.59124 10.9545C8.18634 11.3594 7.53413 11.3662 7.12084 10.9751L7.09968 10.9545C6.6878 10.5426 6.6878 9.87481 7.09968 9.46293L11.2015 5.36116C11.2105 5.35214 11.2196 5.34331 11.2289 5.33469L11.2618 5.30533C11.2842 5.28611 11.3071 5.26804 11.3307 5.25105L11.3547 5.23418L11.3816 5.21651C11.4035 5.20257 11.4258 5.18951 11.4484 5.17734Z" fill="white"/>
</svg>
