<svg width="24" height="24" viewBox="0 0 24 24" fill="none" xmlns="http://www.w3.org/2000/svg">
<rect opacity="0.01" width="24" height="24" fill="white"/>
<path d="M15.0667 1.33301L20.3997 6.66602V20C20.3996 21.4725 19.2062 22.6658 17.7337 22.666H6.00034C4.52768 22.666 3.33352 21.4726 3.33334 20V4C3.33334 2.52724 4.52758 1.33301 6.00034 1.33301H15.0667Z" fill="#1677FF"/>
<path fill-rule="evenodd" clip-rule="evenodd" d="M15.0667 1.33301L20.4 6.66634H16.4C15.6636 6.66634 15.0667 6.06939 15.0667 5.33301V1.33301Z" fill="#BCD4F6"/>
<path fill-rule="evenodd" clip-rule="evenodd" d="M8.94008 15.7337H10.7641L11.8105 11.5097H11.8681L12.8953 15.7337H14.7193L16.2457 9.07129H14.7385L13.7593 13.9961H13.7017L12.7417 9.71449H11.0521L10.0345 13.9961H9.97688L9.01688 9.07129H7.49048L8.94008 15.7337Z" fill="white"/>
</svg>
