<svg width="24" height="24" viewBox="0 0 24 24" fill="none" xmlns="http://www.w3.org/2000/svg">
<rect opacity="0.01" width="24" height="24" fill="white"/>
<path d="M15.0671 1.33331L20.4001 6.66632V20.0003C20.3999 21.4728 19.2065 22.6661 17.7341 22.6663H6.00066C4.52801 22.6663 3.33384 21.4729 3.33366 20.0003V4.00031C3.33366 2.52755 4.5279 1.33331 6.00066 1.33331H15.0671Z" fill="#22B35E"/>
<path fill-rule="evenodd" clip-rule="evenodd" d="M13.9254 7.89949L12.1842 10.8096L10.4252 7.89823C10.3634 7.79593 10.2526 7.73341 10.1331 7.7334H9.03975C8.97525 7.7334 8.91207 7.75167 8.85753 7.78611C8.69813 7.88674 8.65048 8.09754 8.75112 8.25695L11.093 11.9667L8.71938 15.7438C8.68518 15.7982 8.66704 15.8611 8.66704 15.9254C8.66704 16.1139 8.81987 16.2667 9.00837 16.2667H9.98874C10.107 16.2667 10.2169 16.2055 10.2791 16.1048L12.0628 13.2185L13.8346 16.104C13.8967 16.2051 14.0068 16.2668 14.1255 16.2667H15.1918C15.2572 16.2667 15.3212 16.2479 15.3762 16.2126C15.5348 16.1108 15.5809 15.8996 15.479 15.741L13.0945 12.0275L15.5207 8.25951C15.5561 8.20441 15.575 8.14026 15.575 8.07473C15.575 7.88623 15.4222 7.7334 15.2337 7.7334H14.2183C14.0983 7.73341 13.9871 7.79647 13.9254 7.89949H13.9254Z" fill="white"/>
<path fill-rule="evenodd" clip-rule="evenodd" d="M15.0668 1.33325L20.4001 6.66659H16.4001C15.6637 6.66659 15.0668 6.06963 15.0668 5.33325V1.33325Z" fill="#D9F7BE"/>
</svg>
