<svg width="80" height="80" viewBox="0 0 80 80" fill="none" xmlns="http://www.w3.org/2000/svg">
<path d="M40 73.3333C58.4095 73.3333 73.3333 58.4095 73.3333 40C73.3333 21.5905 58.4095 6.66663 40 6.66663C21.5905 6.66663 6.66663 21.5905 6.66663 40C6.66663 58.4095 21.5905 73.3333 40 73.3333Z" stroke="url(#paint0_linear_4_422)" stroke-width="8"/>
<path d="M39.9999 6.66663C44.4202 6.66663 48.6594 8.42257 51.785 11.5482C54.9106 14.6738 56.6666 18.913 56.6666 23.3333C56.6666 27.7536 54.9106 31.9928 51.785 35.1184C48.6594 38.244 44.4202 40 39.9999 40C35.5796 40 31.3404 41.7559 28.2148 44.8815C25.0892 48.0071 23.3333 52.2464 23.3333 56.6666C23.3333 61.0869 25.0892 65.3261 28.2148 68.4517C31.3404 71.5773 35.5796 73.3333 39.9999 73.3333C48.8405 73.3333 57.3189 69.8214 63.5701 63.5702C69.8214 57.319 73.3333 48.8405 73.3333 40C73.3333 31.1594 69.8214 22.6809 63.5701 16.4297C57.3189 10.1785 48.8405 6.66663 39.9999 6.66663Z" fill="url(#paint1_linear_4_422)"/>
<path d="M39.9999 28.9333C43.0927 28.9333 45.5999 26.4261 45.5999 23.3333C45.5999 20.2405 43.0927 17.7333 39.9999 17.7333C36.9071 17.7333 34.3999 20.2405 34.3999 23.3333C34.3999 26.4261 36.9071 28.9333 39.9999 28.9333Z" fill="#EC499A"/>
<path d="M39.9999 62.2667C43.0927 62.2667 45.5999 59.7594 45.5999 56.6667C45.5999 53.5739 43.0927 51.0667 39.9999 51.0667C36.9071 51.0667 34.3999 53.5739 34.3999 56.6667C34.3999 59.7594 36.9071 62.2667 39.9999 62.2667Z" fill="url(#paint2_linear_4_422)"/>
<defs>
<linearGradient id="paint0_linear_4_422" x1="6.66663" y1="6.66663" x2="6673.33" y2="6673.33" gradientUnits="userSpaceOnUse">
<stop stop-color="#EC4899"/>
<stop offset="1" stop-color="#A855F7"/>
</linearGradient>
<linearGradient id="paint1_linear_4_422" x1="23.3333" y1="6.66663" x2="6423.33" y2="4806.67" gradientUnits="userSpaceOnUse">
<stop stop-color="#EC4899"/>
<stop offset="1" stop-color="#A855F7"/>
</linearGradient>
<linearGradient id="paint2_linear_4_422" x1="34.3999" y1="51.0667" x2="1154.4" y2="1171.07" gradientUnits="userSpaceOnUse">
<stop stop-color="#EC4899"/>
<stop offset="1" stop-color="#A855F7"/>
</linearGradient>
</defs>
</svg>
