<svg width="184" height="184" viewBox="0 0 184 184" fill="none" xmlns="http://www.w3.org/2000/svg">
<g filter="url(#filter0_dd_6_45)">
<g clip-path="url(#clip0_6_45)">
<path d="M12 26C12 12.7452 22.7452 2 36 2H148C161.255 2 172 12.7452 172 26V138C172 151.255 161.255 162 148 162H36C22.7452 162 12 151.255 12 138V26Z" fill="url(#paint0_linear_6_45)"/>
<path d="M92 52V87.1667C90.0333 86.0333 87.7667 85.3333 85.3333 85.3333C77.9667 85.3333 72 91.3 72 98.6667C72 106.033 77.9667 112 85.3333 112C92.7 112 98.6667 106.033 98.6667 98.6667V65.3333H112V52H92Z" fill="white" fill-opacity="0.9"/>
<path d="M24.8608 138.273H26.7955L29.3864 144.597H29.4886L32.0795 138.273H34.0142V147H32.4972V141.004H32.4162L30.0043 146.974H28.8707L26.4588 140.991H26.3778V147H24.8608V138.273ZM36.0358 147V138.273H39.3085C39.979 138.273 40.5415 138.398 40.996 138.648C41.4534 138.898 41.7986 139.241 42.0315 139.679C42.2673 140.114 42.3852 140.608 42.3852 141.162C42.3852 141.722 42.2673 142.219 42.0315 142.653C41.7957 143.088 41.4477 143.43 40.9875 143.68C40.5273 143.928 39.9605 144.051 39.2872 144.051H37.1182V142.751H39.0741C39.4662 142.751 39.7872 142.683 40.0372 142.547C40.2872 142.411 40.4719 142.223 40.5912 141.984C40.7134 141.746 40.7744 141.472 40.7744 141.162C40.7744 140.852 40.7134 140.58 40.5912 140.344C40.4719 140.108 40.2858 139.925 40.033 139.794C39.783 139.661 39.4605 139.594 39.0656 139.594H37.6168V147H36.0358ZM47.1053 147.119C46.4917 147.119 45.9462 147.014 45.469 146.804C44.9945 146.594 44.6195 146.301 44.344 145.926C44.0684 145.551 43.9221 145.118 43.905 144.626H45.5073C45.5215 144.862 45.5996 145.068 45.7417 145.244C45.8837 145.418 46.0727 145.553 46.3085 145.649C46.5442 145.746 46.8085 145.794 47.1011 145.794C47.4136 145.794 47.6906 145.74 47.932 145.632C48.1735 145.521 48.3624 145.368 48.4988 145.172C48.6352 144.976 48.7019 144.75 48.6991 144.494C48.7019 144.23 48.6337 143.997 48.4945 143.795C48.3553 143.594 48.1536 143.436 47.8894 143.322C47.6281 143.209 47.3127 143.152 46.9434 143.152H46.1721V141.933H46.9434C47.2474 141.933 47.513 141.881 47.7403 141.776C47.9704 141.67 48.1508 141.523 48.2815 141.332C48.4121 141.139 48.4761 140.916 48.4732 140.663C48.4761 140.416 48.4207 140.202 48.307 140.02C48.1962 139.835 48.0386 139.692 47.834 139.589C47.6323 139.487 47.3951 139.436 47.1224 139.436C46.8553 139.436 46.6082 139.484 46.3809 139.581C46.1536 139.678 45.9704 139.815 45.8312 139.994C45.692 140.17 45.6181 140.381 45.6096 140.625H44.0883C44.0996 140.136 44.2403 139.707 44.5102 139.338C44.7829 138.966 45.1465 138.676 45.6011 138.469C46.0556 138.259 46.5656 138.153 47.1309 138.153C47.7133 138.153 48.219 138.263 48.6479 138.482C49.0798 138.697 49.4136 138.989 49.6494 139.355C49.8852 139.722 50.0031 140.126 50.0031 140.57C50.0059 141.061 49.861 141.473 49.5684 141.805C49.2786 142.138 48.8979 142.355 48.4263 142.457V142.526C49.04 142.611 49.5102 142.838 49.8369 143.207C50.1664 143.574 50.3298 144.03 50.3269 144.575C50.3269 145.064 50.1877 145.501 49.9093 145.888C49.6337 146.271 49.2531 146.572 48.7673 146.791C48.2843 147.01 47.7303 147.119 47.1053 147.119Z" fill="white" fill-opacity="0.8"/>
</g>
</g>
<defs>
<filter id="filter0_dd_6_45" x="0" y="0" width="184" height="184" filterUnits="userSpaceOnUse" color-interpolation-filters="sRGB">
<feFlood flood-opacity="0" result="BackgroundImageFix"/>
<feColorMatrix in="SourceAlpha" type="matrix" values="0 0 0 0 0 0 0 0 0 0 0 0 0 0 0 0 0 0 127 0" result="hardAlpha"/>
<feMorphology radius="4" operator="erode" in="SourceAlpha" result="effect1_dropShadow_6_45"/>
<feOffset dy="4"/>
<feGaussianBlur stdDeviation="3"/>
<feComposite in2="hardAlpha" operator="out"/>
<feColorMatrix type="matrix" values="0 0 0 0 0 0 0 0 0 0 0 0 0 0 0 0 0 0 0.1 0"/>
<feBlend mode="normal" in2="BackgroundImageFix" result="effect1_dropShadow_6_45"/>
<feColorMatrix in="SourceAlpha" type="matrix" values="0 0 0 0 0 0 0 0 0 0 0 0 0 0 0 0 0 0 127 0" result="hardAlpha"/>
<feMorphology radius="3" operator="erode" in="SourceAlpha" result="effect2_dropShadow_6_45"/>
<feOffset dy="10"/>
<feGaussianBlur stdDeviation="7.5"/>
<feComposite in2="hardAlpha" operator="out"/>
<feColorMatrix type="matrix" values="0 0 0 0 0 0 0 0 0 0 0 0 0 0 0 0 0 0 0.1 0"/>
<feBlend mode="normal" in2="effect1_dropShadow_6_45" result="effect2_dropShadow_6_45"/>
<feBlend mode="normal" in="SourceGraphic" in2="effect2_dropShadow_6_45" result="shape"/>
</filter>
<linearGradient id="paint0_linear_6_45" x1="12" y1="2" x2="172" y2="162" gradientUnits="userSpaceOnUse">
<stop stop-color="#FB64B6"/>
<stop offset="1" stop-color="#FB2C36"/>
</linearGradient>
<clipPath id="clip0_6_45">
<path d="M12 26C12 12.7452 22.7452 2 36 2H148C161.255 2 172 12.7452 172 26V138C172 151.255 161.255 162 148 162H36C22.7452 162 12 151.255 12 138V26Z" fill="white"/>
</clipPath>
</defs>
</svg>
