<svg width="184" height="184" viewBox="0 0 184 184" fill="none" xmlns="http://www.w3.org/2000/svg">
<g filter="url(#filter0_dd_6_125)">
<g clip-path="url(#clip0_6_125)">
<path d="M12 26C12 12.7452 22.7452 2 36 2H148C161.255 2 172 12.7452 172 26V138C172 151.255 161.255 162 148 162H36C22.7452 162 12 151.255 12 138V26Z" fill="url(#paint0_linear_6_125)"/>
<path d="M108.667 77V65.3333C108.667 63.5 107.167 62 105.333 62H65.3333C63.5 62 62 63.5 62 65.3333V98.6667C62 100.5 63.5 102 65.3333 102H105.333C107.167 102 108.667 100.5 108.667 98.6667V87L122 100.333V63.6667L108.667 77Z" fill="white" fill-opacity="0.9"/>
<path d="M24.8608 138.273H26.7955L29.3864 144.597H29.4886L32.0795 138.273H34.0142V147H32.4972V141.004H32.4162L30.0043 146.974H28.8707L26.4588 140.991H26.3778V147H24.8608V138.273ZM36.0358 147V138.273H39.3085C39.979 138.273 40.5415 138.398 40.996 138.648C41.4534 138.898 41.7986 139.241 42.0315 139.679C42.2673 140.114 42.3852 140.608 42.3852 141.162C42.3852 141.722 42.2673 142.219 42.0315 142.653C41.7957 143.088 41.4477 143.43 40.9875 143.68C40.5273 143.928 39.9605 144.051 39.2872 144.051H37.1182V142.751H39.0741C39.4662 142.751 39.7872 142.683 40.0372 142.547C40.2872 142.411 40.4719 142.223 40.5912 141.984C40.7134 141.746 40.7744 141.472 40.7744 141.162C40.7744 140.852 40.7134 140.58 40.5912 140.344C40.4719 140.108 40.2858 139.925 40.033 139.794C39.783 139.661 39.4605 139.594 39.0656 139.594H37.6168V147H36.0358ZM43.8156 145.381V144.124L47.5187 138.273H48.567V140.062H47.9278L45.4349 144.013V144.081H50.6039V145.381H43.8156ZM47.9789 147V144.997L47.996 144.435V138.273H49.4874V147H47.9789Z" fill="white" fill-opacity="0.8"/>
</g>
</g>
<defs>
<filter id="filter0_dd_6_125" x="0" y="0" width="184" height="184" filterUnits="userSpaceOnUse" color-interpolation-filters="sRGB">
<feFlood flood-opacity="0" result="BackgroundImageFix"/>
<feColorMatrix in="SourceAlpha" type="matrix" values="0 0 0 0 0 0 0 0 0 0 0 0 0 0 0 0 0 0 127 0" result="hardAlpha"/>
<feMorphology radius="4" operator="erode" in="SourceAlpha" result="effect1_dropShadow_6_125"/>
<feOffset dy="4"/>
<feGaussianBlur stdDeviation="3"/>
<feComposite in2="hardAlpha" operator="out"/>
<feColorMatrix type="matrix" values="0 0 0 0 0 0 0 0 0 0 0 0 0 0 0 0 0 0 0.1 0"/>
<feBlend mode="normal" in2="BackgroundImageFix" result="effect1_dropShadow_6_125"/>
<feColorMatrix in="SourceAlpha" type="matrix" values="0 0 0 0 0 0 0 0 0 0 0 0 0 0 0 0 0 0 127 0" result="hardAlpha"/>
<feMorphology radius="3" operator="erode" in="SourceAlpha" result="effect2_dropShadow_6_125"/>
<feOffset dy="10"/>
<feGaussianBlur stdDeviation="7.5"/>
<feComposite in2="hardAlpha" operator="out"/>
<feColorMatrix type="matrix" values="0 0 0 0 0 0 0 0 0 0 0 0 0 0 0 0 0 0 0.1 0"/>
<feBlend mode="normal" in2="effect1_dropShadow_6_125" result="effect2_dropShadow_6_125"/>
<feBlend mode="normal" in="SourceGraphic" in2="effect2_dropShadow_6_125" result="shape"/>
</filter>
<linearGradient id="paint0_linear_6_125" x1="12" y1="2" x2="172" y2="162" gradientUnits="userSpaceOnUse">
<stop stop-color="#FB64B6"/>
<stop offset="1" stop-color="#FF6900"/>
</linearGradient>
<clipPath id="clip0_6_125">
<path d="M12 26C12 12.7452 22.7452 2 36 2H148C161.255 2 172 12.7452 172 26V138C172 151.255 161.255 162 148 162H36C22.7452 162 12 151.255 12 138V26Z" fill="white"/>
</clipPath>
</defs>
</svg>
