<svg width="18" height="22" viewBox="0 0 18 22" fill="none" xmlns="http://www.w3.org/2000/svg">
<path d="M11.7334 0L17.0664 5.33301V18.667C17.0662 20.1395 15.8729 21.3328 14.4004 21.333H2.66699C1.19434 21.333 0.000175222 20.1396 0 18.667V2.66699C0 1.19423 1.19423 0 2.66699 0H11.7334Z" fill="#FF4D4F"/>
<path fill-rule="evenodd" clip-rule="evenodd" d="M11.7333 0L17.0667 5.33333H13.0667C12.3303 5.33333 11.7333 4.73638 11.7333 4V0Z" fill="#F8BBBF"/>
<path fill-rule="evenodd" clip-rule="evenodd" d="M12.5066 12.0306C12.0191 12.0149 11.5005 12.0521 10.9114 12.1258C10.1308 11.6443 9.60527 10.9826 9.23194 10.0109L9.26609 9.87019C9.28132 9.80728 9.29394 9.75472 9.30602 9.7036C9.44395 9.12112 9.51855 8.69613 9.54056 8.26764C9.5572 7.94398 9.53927 7.64538 9.48186 7.36882C9.3759 6.77175 8.95322 6.42255 8.42095 6.40093C7.9247 6.38079 7.46838 6.65773 7.35169 7.08761C7.16172 7.78196 7.27298 8.69626 7.67555 10.2549C7.16265 11.4775 6.48513 12.9106 6.03048 13.7099C5.42374 14.0228 4.95085 14.3076 4.55409 14.6232C4.03031 15.0398 3.70334 15.4678 3.61319 15.9181C3.56965 16.1263 3.63542 16.399 3.78539 16.6221C3.95554 16.8753 4.21212 17.0395 4.51968 17.0634C5.29565 17.1237 6.24915 16.3237 7.30167 14.517C7.40753 14.482 7.5195 14.4445 7.65592 14.3984L8.03856 14.2691C8.2802 14.1875 8.45559 14.129 8.62895 14.0726C9.38062 13.828 9.94929 13.6733 10.467 13.5854C11.3657 14.0665 12.4049 14.3821 13.1047 14.3821C13.6823 14.3821 14.0726 14.0827 14.2136 13.6115C14.3375 13.1975 14.2391 12.7176 13.9735 12.4522C13.6985 12.182 13.1928 12.0527 12.5066 12.0306ZM4.53925 16.1565V16.1449L4.5433 16.134C4.58426 16.0241 4.64473 15.9089 4.72322 15.7884C4.86085 15.5771 5.05006 15.3547 5.28456 15.1181C5.4105 14.991 5.54165 14.8675 5.69548 14.7287L5.77096 14.6611C5.84981 14.5906 5.96246 14.4899 5.99071 14.4636L6.34977 14.1292L6.08889 14.5448C5.69288 15.1757 5.33516 15.6301 5.02824 15.9264C4.91557 16.0352 4.8162 16.116 4.73616 16.1675C4.70317 16.1888 4.67461 16.2043 4.65221 16.2133C4.63907 16.2185 4.62744 16.2219 4.61591 16.223C4.6037 16.2244 4.59133 16.2227 4.58002 16.2179C4.55528 16.2075 4.5392 16.1833 4.53925 16.1565ZM8.78914 9.27264L8.944 9.1439C9.19521 8.93497 9.34911 8.45748 9.33431 7.99869C9.31752 7.47677 9.10572 7.12953 8.64388 7.12953C8.31524 7.12953 8.23261 7.42273 8.28167 7.91098C8.32477 8.34009 8.48052 8.81597 8.6939 9.13175L8.78914 9.27264ZM8.39862 11.0222L8.44791 10.8921L8.51499 11.014C8.89057 11.6966 9.37789 12.266 9.91379 12.6627L10.0293 12.7482L9.88857 12.7773C9.36398 12.8856 8.87512 13.049 8.20698 13.3184C8.27683 13.2902 7.51227 13.6031 7.31902 13.6772L7.15028 13.7419L7.2403 13.5852C7.63709 12.8946 8.00361 12.0647 8.39859 11.0222H8.39862ZM11.7097 13.1969C12.6668 13.9444 13.2102 14.1075 13.4629 13.9251C13.4954 13.9017 13.5181 13.875 13.5325 13.8499C13.599 13.7618 13.6183 13.6163 13.5762 13.479C13.5372 13.3517 13.4494 13.2406 13.318 13.1525C13.0091 12.9456 12.4786 12.8701 11.7302 12.9715L11.4667 13.0072L11.7097 13.1969Z" fill="white"/>
</svg>
