<svg width="24" height="24" viewBox="0 0 24 24" fill="none" xmlns="http://www.w3.org/2000/svg">
<rect width="23.9158" height="23.9158" rx="11.9579" fill="url(#paint0_linear_476_5797)"/>
<path d="M19.6496 10.433C20.0523 10.1454 20.5118 9.27342 20.6268 8.76554C20.6934 8.47232 21.0007 6.1974 18.8731 5.52678C16.7462 4.85616 15.245 6.67231 15.245 6.67231C14.5267 7.39063 13.2373 9.7357 13.2373 9.7357C13.311 6.26895 14.5274 5.14587 15.2773 4.73831C14.2608 4.33495 13.1532 4.11328 11.9929 4.11328C10.8326 4.11328 9.69132 4.34197 8.66294 4.75654C9.40511 5.17393 10.5654 6.2907 10.6657 9.60172C10.4293 9.18924 9.33777 7.30996 8.69942 6.6716C8.69942 6.6716 7.19823 4.85545 5.07132 5.52608C2.94442 6.1967 3.25167 8.47162 3.31761 8.76484C3.43265 9.27272 3.89142 10.1447 4.29478 10.4323C4.29478 10.4323 2.90583 12.5066 3.32953 14.8909C3.77848 17.4205 7.56301 18.0259 8.15226 19.8659C8.15226 19.8659 9.71236 17.2009 7.24664 13.2684C4.97592 9.64661 4.76758 9.97 4.22954 8.62875C4.22954 8.62875 3.88301 7.49094 4.9184 6.70528C5.95309 5.91961 7.03619 6.84908 7.03619 6.84908C7.03619 6.84908 6.27929 7.90342 6.07796 8.47793C9.6352 7.96795 10.4714 10.9409 10.5233 11.7644C10.6671 14.0351 10.1648 16.4167 9.76217 17.4948C9.35951 18.573 8.95756 19.6653 9.80496 20.5421C10.6531 21.419 11.76 21.4477 11.9536 21.4477C12.1472 21.4477 13.2549 21.419 14.1023 20.5421C14.9504 19.6653 14.5477 18.573 14.1451 17.4948C13.7424 16.4167 13.2829 14.0884 13.4267 11.8177C13.4786 10.9942 14.681 7.92025 18.2382 8.43023C17.764 7.43342 16.9089 6.84908 16.9089 6.84908C16.9089 6.84908 17.992 5.91961 19.0267 6.70528C20.0614 7.49094 19.7156 8.62875 19.7156 8.62875C19.1782 9.97 18.9692 9.64661 16.6985 13.2684C14.2334 17.2002 15.7929 19.8659 15.7929 19.8659C16.3821 18.0259 20.1659 17.4205 20.6156 14.8909C21.0393 12.5066 19.6503 10.4323 19.6503 10.4323L19.6496 10.433ZM13.7712 19.3685C13.7712 19.9634 13.0767 21.0598 11.9775 21.0598C10.8782 21.0598 10.1838 19.9634 10.1838 19.3685C10.1838 18.7737 10.987 18.291 11.9775 18.291C12.968 18.291 13.7712 18.7737 13.7712 19.3685Z" fill="#F7F7F7"/>
<path d="M9.1335 14.1704C9.41787 14.1704 9.64839 13.9399 9.64839 13.6555C9.64839 13.3711 9.41787 13.1406 9.1335 13.1406C8.84913 13.1406 8.61861 13.3711 8.61861 13.6555C8.61861 13.9399 8.84913 14.1704 9.1335 14.1704Z" fill="#F7F7F7"/>
<path d="M14.8468 14.1704C15.1311 14.1704 15.3616 13.9399 15.3616 13.6555C15.3616 13.3711 15.1311 13.1406 14.8468 13.1406C14.5624 13.1406 14.3319 13.3711 14.3319 13.6555C14.3319 13.9399 14.5624 14.1704 14.8468 14.1704Z" fill="#F7F7F7"/>
<defs>
<linearGradient id="paint0_linear_476_5797" x1="-4.79313e-08" y1="10.7984" x2="25.1745" y2="10.7984" gradientUnits="userSpaceOnUse">
<stop stop-color="#A940FF"/>
<stop offset="1" stop-color="#0056E8"/>
</linearGradient>
</defs>
</svg>
