<svg width="24" height="24" viewBox="0 0 24 24" fill="none" xmlns="http://www.w3.org/2000/svg">
<rect opacity="0.01" width="24" height="24" fill="white"/>
<path d="M15.0667 1.33337L20.3997 6.66638V20.0004C20.3996 21.4728 19.2062 22.6662 17.7337 22.6664H6.00034C4.52768 22.6664 3.33352 21.473 3.33334 20.0004V4.00037C3.33334 2.52761 4.52758 1.33337 6.00034 1.33337H15.0667Z" fill="#22B35E"/>
<path fill-rule="evenodd" clip-rule="evenodd" d="M15.0668 1.33337L20.4002 6.66671H16.4002C15.6638 6.66671 15.0668 6.06975 15.0668 5.33337V1.33337Z" fill="#DBDBDB"/>
<path d="M15.4141 9.00781L15.543 10.8652H15.3203C15.2578 10.3418 15.1094 9.99219 14.875 9.81641C14.6406 9.63672 14.2129 9.54688 13.5918 9.54688H12.6016V15.3301C12.6016 15.8496 12.6758 16.209 12.8242 16.4082C12.9766 16.6035 13.252 16.7012 13.6504 16.7012H13.873V17H10.4453V16.7012H10.6328C11.0469 16.7012 11.332 16.6035 11.4883 16.4082C11.6445 16.209 11.7227 15.8496 11.7227 15.3301V9.54688H10.7617C10.1445 9.54688 9.70703 9.64258 9.44922 9.83398C9.19141 10.0254 9.03711 10.3711 8.98633 10.8711H8.76367L8.89844 9.00781H15.4141Z" fill="white"/>
</svg>
