<svg width="24" height="24" viewBox="0 0 24 24" fill="none" xmlns="http://www.w3.org/2000/svg">
<path d="M1.875 3.69498C1.875 3.10364 2.35437 2.62427 2.94571 2.62427H8.80117C9.1265 2.62427 9.43419 2.77218 9.63738 3.02626L10.5535 4.17186C10.7567 4.42593 11.0644 4.57385 11.3897 4.57385H21.0543C21.6456 4.57385 22.125 5.05322 22.125 5.64456V14.6243H1.875V3.69498Z" fill="#F9A415"/>
<path d="M3.4421 7.50896C3.4057 6.89383 3.89474 6.375 4.51094 6.375H20.2512C20.8629 6.375 21.3502 6.88652 21.3207 7.49746L20.7348 19.606C20.7072 20.1766 20.2365 20.625 19.6653 20.625H5.22741C4.66064 20.625 4.19205 20.1833 4.15857 19.6175L3.4421 7.50896Z" fill="white"/>
<path d="M1.21189 9.02556C1.165 8.40424 1.65648 7.87427 2.27956 7.87427H21.7362C22.3534 7.87427 22.8429 8.39483 22.8048 9.01094L22.1038 20.3695C22.069 20.9342 21.6009 21.3743 21.0351 21.3743H3.1368C2.57672 21.3743 2.11127 20.9426 2.06912 20.3841L1.21189 9.02556Z" fill="#FEC517"/>
</svg>
